G04 #@! TF.FileFunction,Other,Fab,Top*
%FSLAX46Y46*%
G04 Gerber Fmt 4.6, Leading zero omitted, Abs format (unit mm)*
G04 Created by KiCad (PCBNEW 4.0.1-3.201512221402+6198~38~ubuntu14.04.1-stable) date Tue 23 Aug 2016 07:28:16 PM PDT*
%MOMM*%
G01*
G04 APERTURE LIST*
%ADD10C,0.100000*%
%ADD11C,0.300000*%
%ADD12C,0.200000*%
%ADD13C,0.050000*%
%ADD14C,0.400000*%
%ADD15C,0.150000*%
G04 APERTURE END LIST*
D10*
D11*
X108916286Y-85006571D02*
X108916286Y-83506571D01*
X109630572Y-84006571D02*
X109630572Y-85006571D01*
X109630572Y-84149429D02*
X109702000Y-84078000D01*
X109844858Y-84006571D01*
X110059143Y-84006571D01*
X110202000Y-84078000D01*
X110273429Y-84220857D01*
X110273429Y-85006571D01*
X110987715Y-84006571D02*
X110987715Y-85506571D01*
X110987715Y-84078000D02*
X111130572Y-84006571D01*
X111416286Y-84006571D01*
X111559143Y-84078000D01*
X111630572Y-84149429D01*
X111702001Y-84292286D01*
X111702001Y-84720857D01*
X111630572Y-84863714D01*
X111559143Y-84935143D01*
X111416286Y-85006571D01*
X111130572Y-85006571D01*
X110987715Y-84935143D01*
X112987715Y-84006571D02*
X112987715Y-85006571D01*
X112344858Y-84006571D02*
X112344858Y-84792286D01*
X112416286Y-84935143D01*
X112559144Y-85006571D01*
X112773429Y-85006571D01*
X112916286Y-84935143D01*
X112987715Y-84863714D01*
X113487715Y-84006571D02*
X114059144Y-84006571D01*
X113702001Y-83506571D02*
X113702001Y-84792286D01*
X113773429Y-84935143D01*
X113916287Y-85006571D01*
X114059144Y-85006571D01*
X115702001Y-85006571D02*
X115702001Y-83506571D01*
X116273429Y-83506571D01*
X116416287Y-83578000D01*
X116487715Y-83649429D01*
X116559144Y-83792286D01*
X116559144Y-84006571D01*
X116487715Y-84149429D01*
X116416287Y-84220857D01*
X116273429Y-84292286D01*
X115702001Y-84292286D01*
X117416287Y-85006571D02*
X117273429Y-84935143D01*
X117202001Y-84863714D01*
X117130572Y-84720857D01*
X117130572Y-84292286D01*
X117202001Y-84149429D01*
X117273429Y-84078000D01*
X117416287Y-84006571D01*
X117630572Y-84006571D01*
X117773429Y-84078000D01*
X117844858Y-84149429D01*
X117916287Y-84292286D01*
X117916287Y-84720857D01*
X117844858Y-84863714D01*
X117773429Y-84935143D01*
X117630572Y-85006571D01*
X117416287Y-85006571D01*
X118416287Y-84006571D02*
X118702001Y-85006571D01*
X118987715Y-84292286D01*
X119273430Y-85006571D01*
X119559144Y-84006571D01*
X120702001Y-84935143D02*
X120559144Y-85006571D01*
X120273430Y-85006571D01*
X120130573Y-84935143D01*
X120059144Y-84792286D01*
X120059144Y-84220857D01*
X120130573Y-84078000D01*
X120273430Y-84006571D01*
X120559144Y-84006571D01*
X120702001Y-84078000D01*
X120773430Y-84220857D01*
X120773430Y-84363714D01*
X120059144Y-84506571D01*
X121416287Y-85006571D02*
X121416287Y-84006571D01*
X121416287Y-84292286D02*
X121487715Y-84149429D01*
X121559144Y-84078000D01*
X121702001Y-84006571D01*
X121844858Y-84006571D01*
X123987715Y-84220857D02*
X124202001Y-84292286D01*
X124273429Y-84363714D01*
X124344858Y-84506571D01*
X124344858Y-84720857D01*
X124273429Y-84863714D01*
X124202001Y-84935143D01*
X124059143Y-85006571D01*
X123487715Y-85006571D01*
X123487715Y-83506571D01*
X123987715Y-83506571D01*
X124130572Y-83578000D01*
X124202001Y-83649429D01*
X124273429Y-83792286D01*
X124273429Y-83935143D01*
X124202001Y-84078000D01*
X124130572Y-84149429D01*
X123987715Y-84220857D01*
X123487715Y-84220857D01*
X125202001Y-85006571D02*
X125059143Y-84935143D01*
X124987715Y-84863714D01*
X124916286Y-84720857D01*
X124916286Y-84292286D01*
X124987715Y-84149429D01*
X125059143Y-84078000D01*
X125202001Y-84006571D01*
X125416286Y-84006571D01*
X125559143Y-84078000D01*
X125630572Y-84149429D01*
X125702001Y-84292286D01*
X125702001Y-84720857D01*
X125630572Y-84863714D01*
X125559143Y-84935143D01*
X125416286Y-85006571D01*
X125202001Y-85006571D01*
X126987715Y-85006571D02*
X126987715Y-84220857D01*
X126916286Y-84078000D01*
X126773429Y-84006571D01*
X126487715Y-84006571D01*
X126344858Y-84078000D01*
X126987715Y-84935143D02*
X126844858Y-85006571D01*
X126487715Y-85006571D01*
X126344858Y-84935143D01*
X126273429Y-84792286D01*
X126273429Y-84649429D01*
X126344858Y-84506571D01*
X126487715Y-84435143D01*
X126844858Y-84435143D01*
X126987715Y-84363714D01*
X127702001Y-85006571D02*
X127702001Y-84006571D01*
X127702001Y-84292286D02*
X127773429Y-84149429D01*
X127844858Y-84078000D01*
X127987715Y-84006571D01*
X128130572Y-84006571D01*
X129273429Y-85006571D02*
X129273429Y-83506571D01*
X129273429Y-84935143D02*
X129130572Y-85006571D01*
X128844858Y-85006571D01*
X128702000Y-84935143D01*
X128630572Y-84863714D01*
X128559143Y-84720857D01*
X128559143Y-84292286D01*
X128630572Y-84149429D01*
X128702000Y-84078000D01*
X128844858Y-84006571D01*
X129130572Y-84006571D01*
X129273429Y-84078000D01*
X130916286Y-83506571D02*
X131773429Y-83506571D01*
X131344858Y-85006571D02*
X131344858Y-83506571D01*
X132273429Y-85006571D02*
X132273429Y-83506571D01*
X132273429Y-84220857D02*
X133130572Y-84220857D01*
X133130572Y-85006571D02*
X133130572Y-83506571D01*
X134844858Y-84006571D02*
X135202001Y-85006571D01*
X135559143Y-84006571D01*
X136916286Y-85006571D02*
X136059143Y-85006571D01*
X136487715Y-85006571D02*
X136487715Y-83506571D01*
X136344858Y-83720857D01*
X136202000Y-83863714D01*
X136059143Y-83935143D01*
X137559143Y-84863714D02*
X137630571Y-84935143D01*
X137559143Y-85006571D01*
X137487714Y-84935143D01*
X137559143Y-84863714D01*
X137559143Y-85006571D01*
X139059143Y-85006571D02*
X138202000Y-85006571D01*
X138630572Y-85006571D02*
X138630572Y-83506571D01*
X138487715Y-83720857D01*
X138344857Y-83863714D01*
X138202000Y-83935143D01*
X129286573Y-113867429D02*
X129143715Y-113796000D01*
X129072287Y-113724571D01*
X129000858Y-113581714D01*
X129000858Y-113510286D01*
X129072287Y-113367429D01*
X129143715Y-113296000D01*
X129286573Y-113224571D01*
X129572287Y-113224571D01*
X129715144Y-113296000D01*
X129786573Y-113367429D01*
X129858001Y-113510286D01*
X129858001Y-113581714D01*
X129786573Y-113724571D01*
X129715144Y-113796000D01*
X129572287Y-113867429D01*
X129286573Y-113867429D01*
X129143715Y-113938857D01*
X129072287Y-114010286D01*
X129000858Y-114153143D01*
X129000858Y-114438857D01*
X129072287Y-114581714D01*
X129143715Y-114653143D01*
X129286573Y-114724571D01*
X129572287Y-114724571D01*
X129715144Y-114653143D01*
X129786573Y-114581714D01*
X129858001Y-114438857D01*
X129858001Y-114153143D01*
X129786573Y-114010286D01*
X129715144Y-113938857D01*
X129572287Y-113867429D01*
X131572286Y-113153143D02*
X130286572Y-115081714D01*
X132000858Y-113367429D02*
X132072287Y-113296000D01*
X132215144Y-113224571D01*
X132572287Y-113224571D01*
X132715144Y-113296000D01*
X132786573Y-113367429D01*
X132858001Y-113510286D01*
X132858001Y-113653143D01*
X132786573Y-113867429D01*
X131929430Y-114724571D01*
X132858001Y-114724571D01*
X133358001Y-113224571D02*
X134286572Y-113224571D01*
X133786572Y-113796000D01*
X134000858Y-113796000D01*
X134143715Y-113867429D01*
X134215144Y-113938857D01*
X134286572Y-114081714D01*
X134286572Y-114438857D01*
X134215144Y-114581714D01*
X134143715Y-114653143D01*
X134000858Y-114724571D01*
X133572286Y-114724571D01*
X133429429Y-114653143D01*
X133358001Y-114581714D01*
X136000857Y-113153143D02*
X134715143Y-115081714D01*
X137286572Y-114724571D02*
X136429429Y-114724571D01*
X136858001Y-114724571D02*
X136858001Y-113224571D01*
X136715144Y-113438857D01*
X136572286Y-113581714D01*
X136429429Y-113653143D01*
X138572286Y-113224571D02*
X138286572Y-113224571D01*
X138143715Y-113296000D01*
X138072286Y-113367429D01*
X137929429Y-113581714D01*
X137858000Y-113867429D01*
X137858000Y-114438857D01*
X137929429Y-114581714D01*
X138000857Y-114653143D01*
X138143715Y-114724571D01*
X138429429Y-114724571D01*
X138572286Y-114653143D01*
X138643715Y-114581714D01*
X138715143Y-114438857D01*
X138715143Y-114081714D01*
X138643715Y-113938857D01*
X138572286Y-113867429D01*
X138429429Y-113796000D01*
X138143715Y-113796000D01*
X138000857Y-113867429D01*
X137929429Y-113938857D01*
X137858000Y-114081714D01*
D12*
X139700000Y-112268000D02*
X139700000Y-86360000D01*
X98044000Y-112268000D02*
X139700000Y-112268000D01*
X98044000Y-86360000D02*
X98044000Y-112268000D01*
X139700000Y-86360000D02*
X98044000Y-86360000D01*
D13*
X135032500Y-88511500D02*
X135032500Y-86511500D01*
X135032500Y-90511500D02*
X136282500Y-90511500D01*
X135032500Y-91011500D02*
X135032500Y-90511500D01*
X135032500Y-93761500D02*
X136282500Y-93761500D01*
X135032500Y-93761500D02*
X135032500Y-92761500D01*
X135032500Y-97511500D02*
X135032500Y-95261500D01*
X136032500Y-97511500D02*
X136282500Y-97511500D01*
X136282500Y-97511500D02*
X136282500Y-86511500D01*
X131032500Y-86511500D02*
X136282500Y-86511500D01*
X131032500Y-97511500D02*
X131032500Y-86511500D01*
X131282500Y-97511500D02*
X131032500Y-97511500D01*
X136032500Y-97511500D02*
X131282500Y-97511500D01*
X110415902Y-95936000D02*
G75*
G03X110415902Y-95936000I-1952562J0D01*
G01*
X107415902Y-91186000D02*
G75*
G03X107415902Y-91186000I-1952562J0D01*
G01*
X113617283Y-91186000D02*
G75*
G03X113617283Y-91186000I-1903943J0D01*
G01*
D14*
X112066893Y-91186000D02*
G75*
G03X112066893Y-91186000I-353553J0D01*
G01*
D13*
X113963340Y-86686000D02*
X112463340Y-86686000D01*
X113963340Y-98186000D02*
X113963340Y-86686000D01*
X97963340Y-98186000D02*
X113963340Y-98186000D01*
X97963340Y-95686000D02*
X97963340Y-98186000D01*
X97963340Y-86686000D02*
X97963340Y-95686000D01*
X112463340Y-86686000D02*
X97963340Y-86686000D01*
X136941500Y-98363500D02*
X136933940Y-104963500D01*
X136941500Y-98363500D02*
X130891500Y-98363500D01*
X136941500Y-104963500D02*
X130891500Y-104963500D01*
X130891500Y-98363500D02*
X130891500Y-104963500D01*
X126781500Y-98427000D02*
X126773940Y-105027000D01*
X126781500Y-98427000D02*
X120731500Y-98427000D01*
X126781500Y-105027000D02*
X120731500Y-105027000D01*
X120731500Y-98427000D02*
X120731500Y-105027000D01*
X116621500Y-98363500D02*
X116613940Y-104963500D01*
X116621500Y-98363500D02*
X110571500Y-98363500D01*
X116621500Y-104963500D02*
X110571500Y-104963500D01*
X110571500Y-98363500D02*
X110571500Y-104963500D01*
X106461500Y-98363500D02*
X106453940Y-104963500D01*
X106461500Y-98363500D02*
X100411500Y-98363500D01*
X106461500Y-104963500D02*
X100411500Y-104963500D01*
X100411500Y-98363500D02*
X100411500Y-104963500D01*
X120211600Y-88295600D02*
X120211600Y-86295600D01*
X120211600Y-90295600D02*
X121461600Y-90295600D01*
X120211600Y-90795600D02*
X120211600Y-90295600D01*
X120211600Y-93545600D02*
X121461600Y-93545600D01*
X120211600Y-93545600D02*
X120211600Y-92545600D01*
X120211600Y-97295600D02*
X120211600Y-95045600D01*
X121211600Y-97295600D02*
X121461600Y-97295600D01*
X121461600Y-97295600D02*
X121461600Y-86295600D01*
X116211600Y-86295600D02*
X121461600Y-86295600D01*
X116211600Y-97295600D02*
X116211600Y-86295600D01*
X116461600Y-97295600D02*
X116211600Y-97295600D01*
X121211600Y-97295600D02*
X116461600Y-97295600D01*
X130325000Y-97242000D02*
X122325000Y-97242000D01*
X130325000Y-92242000D02*
X130325000Y-97242000D01*
X122325000Y-92242000D02*
X130325000Y-92242000D01*
X122325000Y-97242000D02*
X122325000Y-92242000D01*
X128535000Y-90654000D02*
X124235000Y-90654000D01*
X128535000Y-87654000D02*
X128535000Y-90654000D01*
X124235000Y-87654000D02*
X128535000Y-87654000D01*
X124235000Y-90654000D02*
X124235000Y-87654000D01*
X130941500Y-108620500D02*
X136941500Y-108620500D01*
X130941500Y-108620500D02*
X130941500Y-105120500D01*
X136941500Y-105120500D02*
X130941500Y-105120500D01*
X136941500Y-108620500D02*
X136941500Y-105120500D01*
D14*
X135483048Y-106870500D02*
G75*
G03X135483048Y-106870500I-291548J0D01*
G01*
D13*
X120781500Y-108747500D02*
X126781500Y-108747500D01*
X120781500Y-108747500D02*
X120781500Y-105247500D01*
X126781500Y-105247500D02*
X120781500Y-105247500D01*
X126781500Y-108747500D02*
X126781500Y-105247500D01*
D14*
X125323048Y-106997500D02*
G75*
G03X125323048Y-106997500I-291548J0D01*
G01*
D13*
X110621500Y-108620500D02*
X116621500Y-108620500D01*
X110621500Y-108620500D02*
X110621500Y-105120500D01*
X116621500Y-105120500D02*
X110621500Y-105120500D01*
X116621500Y-108620500D02*
X116621500Y-105120500D01*
D14*
X115163048Y-106870500D02*
G75*
G03X115163048Y-106870500I-291548J0D01*
G01*
D13*
X100461500Y-108620500D02*
X106461500Y-108620500D01*
X100461500Y-108620500D02*
X100461500Y-105120500D01*
X106461500Y-105120500D02*
X100461500Y-105120500D01*
X106461500Y-108620500D02*
X106461500Y-105120500D01*
D14*
X105003048Y-106870500D02*
G75*
G03X105003048Y-106870500I-291548J0D01*
G01*
D15*
X133484881Y-96344833D02*
X133484881Y-96821024D01*
X132484881Y-96821024D01*
X133484881Y-96011500D02*
X132484881Y-96011500D01*
X132484881Y-95773405D01*
X132532500Y-95630547D01*
X132627738Y-95535309D01*
X132722976Y-95487690D01*
X132913452Y-95440071D01*
X133056310Y-95440071D01*
X133246786Y-95487690D01*
X133342024Y-95535309D01*
X133437262Y-95630547D01*
X133484881Y-95773405D01*
X133484881Y-96011500D01*
X133484881Y-94487690D02*
X133484881Y-95059119D01*
X133484881Y-94773405D02*
X132484881Y-94773405D01*
X132627738Y-94868643D01*
X132722976Y-94963881D01*
X132770595Y-95059119D01*
X133484881Y-93535309D02*
X133484881Y-94106738D01*
X133484881Y-93821024D02*
X132484881Y-93821024D01*
X132627738Y-93916262D01*
X132722976Y-94011500D01*
X132770595Y-94106738D01*
X133484881Y-92582928D02*
X133484881Y-93154357D01*
X133484881Y-92868643D02*
X132484881Y-92868643D01*
X132627738Y-92963881D01*
X132722976Y-93059119D01*
X132770595Y-93154357D01*
X132484881Y-92249595D02*
X132484881Y-91582928D01*
X133484881Y-92011500D01*
X133103929Y-91201976D02*
X133103929Y-90440071D01*
X132484881Y-90059119D02*
X132484881Y-89440071D01*
X132865833Y-89773405D01*
X132865833Y-89630547D01*
X132913452Y-89535309D01*
X132961071Y-89487690D01*
X133056310Y-89440071D01*
X133294405Y-89440071D01*
X133389643Y-89487690D01*
X133437262Y-89535309D01*
X133484881Y-89630547D01*
X133484881Y-89916262D01*
X133437262Y-90011500D01*
X133389643Y-90059119D01*
X133389643Y-89011500D02*
X133437262Y-88963881D01*
X133484881Y-89011500D01*
X133437262Y-89059119D01*
X133389643Y-89011500D01*
X133484881Y-89011500D01*
X132484881Y-88630548D02*
X132484881Y-88011500D01*
X132865833Y-88344834D01*
X132865833Y-88201976D01*
X132913452Y-88106738D01*
X132961071Y-88059119D01*
X133056310Y-88011500D01*
X133294405Y-88011500D01*
X133389643Y-88059119D01*
X133437262Y-88106738D01*
X133484881Y-88201976D01*
X133484881Y-88487691D01*
X133437262Y-88582929D01*
X133389643Y-88630548D01*
X132484881Y-87725786D02*
X133484881Y-87392453D01*
X132484881Y-87059119D01*
X101820483Y-90638381D02*
X102153816Y-91638381D01*
X102487150Y-90638381D01*
X102820483Y-91638381D02*
X102820483Y-90638381D01*
X103296673Y-91638381D02*
X103296673Y-90638381D01*
X103868102Y-91638381D01*
X103868102Y-90638381D01*
X105106197Y-91638381D02*
X105106197Y-90638381D01*
X105582387Y-91638381D02*
X105582387Y-90638381D01*
X106153816Y-91638381D01*
X106153816Y-90638381D01*
X106630006Y-91638381D02*
X106630006Y-90638381D01*
X107010959Y-90638381D01*
X107106197Y-90686000D01*
X107153816Y-90733619D01*
X107201435Y-90828857D01*
X107201435Y-90971714D01*
X107153816Y-91066952D01*
X107106197Y-91114571D01*
X107010959Y-91162190D01*
X106630006Y-91162190D01*
X107630006Y-90638381D02*
X107630006Y-91447905D01*
X107677625Y-91543143D01*
X107725244Y-91590762D01*
X107820482Y-91638381D01*
X108010959Y-91638381D01*
X108106197Y-91590762D01*
X108153816Y-91543143D01*
X108201435Y-91447905D01*
X108201435Y-90638381D01*
X108534768Y-90638381D02*
X109106197Y-90638381D01*
X108820482Y-91638381D02*
X108820482Y-90638381D01*
X133373881Y-102901595D02*
X134088167Y-102901595D01*
X134231024Y-102949215D01*
X134326262Y-103044453D01*
X134373881Y-103187310D01*
X134373881Y-103282548D01*
X133707214Y-101996833D02*
X134373881Y-101996833D01*
X133326262Y-102234929D02*
X134040548Y-102473024D01*
X134040548Y-101853976D01*
X134088167Y-101520643D02*
X134088167Y-101044452D01*
X134373881Y-101615881D02*
X133373881Y-101282548D01*
X134373881Y-100949214D01*
X134373881Y-100092071D02*
X134373881Y-100663500D01*
X134373881Y-100377786D02*
X133373881Y-100377786D01*
X133516738Y-100473024D01*
X133611976Y-100568262D01*
X133659595Y-100663500D01*
X123213881Y-102965095D02*
X123928167Y-102965095D01*
X124071024Y-103012715D01*
X124166262Y-103107953D01*
X124213881Y-103250810D01*
X124213881Y-103346048D01*
X123213881Y-102584143D02*
X123213881Y-101965095D01*
X123594833Y-102298429D01*
X123594833Y-102155571D01*
X123642452Y-102060333D01*
X123690071Y-102012714D01*
X123785310Y-101965095D01*
X124023405Y-101965095D01*
X124118643Y-102012714D01*
X124166262Y-102060333D01*
X124213881Y-102155571D01*
X124213881Y-102441286D01*
X124166262Y-102536524D01*
X124118643Y-102584143D01*
X123928167Y-101584143D02*
X123928167Y-101107952D01*
X124213881Y-101679381D02*
X123213881Y-101346048D01*
X124213881Y-101012714D01*
X124213881Y-100155571D02*
X124213881Y-100727000D01*
X124213881Y-100441286D02*
X123213881Y-100441286D01*
X123356738Y-100536524D01*
X123451976Y-100631762D01*
X123499595Y-100727000D01*
X113053881Y-102901595D02*
X113768167Y-102901595D01*
X113911024Y-102949215D01*
X114006262Y-103044453D01*
X114053881Y-103187310D01*
X114053881Y-103282548D01*
X113149119Y-102473024D02*
X113101500Y-102425405D01*
X113053881Y-102330167D01*
X113053881Y-102092071D01*
X113101500Y-101996833D01*
X113149119Y-101949214D01*
X113244357Y-101901595D01*
X113339595Y-101901595D01*
X113482452Y-101949214D01*
X114053881Y-102520643D01*
X114053881Y-101901595D01*
X113768167Y-101520643D02*
X113768167Y-101044452D01*
X114053881Y-101615881D02*
X113053881Y-101282548D01*
X114053881Y-100949214D01*
X114053881Y-100092071D02*
X114053881Y-100663500D01*
X114053881Y-100377786D02*
X113053881Y-100377786D01*
X113196738Y-100473024D01*
X113291976Y-100568262D01*
X113339595Y-100663500D01*
X102893881Y-102901595D02*
X103608167Y-102901595D01*
X103751024Y-102949215D01*
X103846262Y-103044453D01*
X103893881Y-103187310D01*
X103893881Y-103282548D01*
X103893881Y-101901595D02*
X103893881Y-102473024D01*
X103893881Y-102187310D02*
X102893881Y-102187310D01*
X103036738Y-102282548D01*
X103131976Y-102377786D01*
X103179595Y-102473024D01*
X103608167Y-101520643D02*
X103608167Y-101044452D01*
X103893881Y-101615881D02*
X102893881Y-101282548D01*
X103893881Y-100949214D01*
X103893881Y-100092071D02*
X103893881Y-100663500D01*
X103893881Y-100377786D02*
X102893881Y-100377786D01*
X103036738Y-100473024D01*
X103131976Y-100568262D01*
X103179595Y-100663500D01*
X118663981Y-96509886D02*
X117663981Y-96509886D01*
X118663981Y-95938457D01*
X117663981Y-95938457D01*
X118568743Y-94890838D02*
X118616362Y-94938457D01*
X118663981Y-95081314D01*
X118663981Y-95176552D01*
X118616362Y-95319410D01*
X118521124Y-95414648D01*
X118425886Y-95462267D01*
X118235410Y-95509886D01*
X118092552Y-95509886D01*
X117902076Y-95462267D01*
X117806838Y-95414648D01*
X117711600Y-95319410D01*
X117663981Y-95176552D01*
X117663981Y-95081314D01*
X117711600Y-94938457D01*
X117759219Y-94890838D01*
X118663981Y-94462267D02*
X117663981Y-94462267D01*
X117663981Y-94081314D01*
X117711600Y-93986076D01*
X117759219Y-93938457D01*
X117854457Y-93890838D01*
X117997314Y-93890838D01*
X118092552Y-93938457D01*
X118140171Y-93986076D01*
X118187790Y-94081314D01*
X118187790Y-94462267D01*
X117663981Y-93557505D02*
X117663981Y-92890838D01*
X118663981Y-93319410D01*
X118092552Y-92367029D02*
X118044933Y-92462267D01*
X117997314Y-92509886D01*
X117902076Y-92557505D01*
X117854457Y-92557505D01*
X117759219Y-92509886D01*
X117711600Y-92462267D01*
X117663981Y-92367029D01*
X117663981Y-92176552D01*
X117711600Y-92081314D01*
X117759219Y-92033695D01*
X117854457Y-91986076D01*
X117902076Y-91986076D01*
X117997314Y-92033695D01*
X118044933Y-92081314D01*
X118092552Y-92176552D01*
X118092552Y-92367029D01*
X118140171Y-92462267D01*
X118187790Y-92509886D01*
X118283029Y-92557505D01*
X118473505Y-92557505D01*
X118568743Y-92509886D01*
X118616362Y-92462267D01*
X118663981Y-92367029D01*
X118663981Y-92176552D01*
X118616362Y-92081314D01*
X118568743Y-92033695D01*
X118473505Y-91986076D01*
X118283029Y-91986076D01*
X118187790Y-92033695D01*
X118140171Y-92081314D01*
X118092552Y-92176552D01*
X117663981Y-91367029D02*
X117663981Y-91271790D01*
X117711600Y-91176552D01*
X117759219Y-91128933D01*
X117854457Y-91081314D01*
X118044933Y-91033695D01*
X118283029Y-91033695D01*
X118473505Y-91081314D01*
X118568743Y-91128933D01*
X118616362Y-91176552D01*
X118663981Y-91271790D01*
X118663981Y-91367029D01*
X118616362Y-91462267D01*
X118568743Y-91509886D01*
X118473505Y-91557505D01*
X118283029Y-91605124D01*
X118044933Y-91605124D01*
X117854457Y-91557505D01*
X117759219Y-91509886D01*
X117711600Y-91462267D01*
X117663981Y-91367029D01*
X117663981Y-90128933D02*
X117663981Y-90605124D01*
X118140171Y-90652743D01*
X118092552Y-90605124D01*
X118044933Y-90509886D01*
X118044933Y-90271790D01*
X118092552Y-90176552D01*
X118140171Y-90128933D01*
X118235410Y-90081314D01*
X118473505Y-90081314D01*
X118568743Y-90128933D01*
X118616362Y-90176552D01*
X118663981Y-90271790D01*
X118663981Y-90509886D01*
X118616362Y-90605124D01*
X118568743Y-90652743D01*
X118283029Y-89652743D02*
X118283029Y-88890838D01*
X117663981Y-87938457D02*
X117663981Y-88414648D01*
X118140171Y-88462267D01*
X118092552Y-88414648D01*
X118044933Y-88319410D01*
X118044933Y-88081314D01*
X118092552Y-87986076D01*
X118140171Y-87938457D01*
X118235410Y-87890838D01*
X118473505Y-87890838D01*
X118568743Y-87938457D01*
X118616362Y-87986076D01*
X118663981Y-88081314D01*
X118663981Y-88319410D01*
X118616362Y-88414648D01*
X118568743Y-88462267D01*
X117663981Y-87605124D02*
X118663981Y-87271791D01*
X117663981Y-86938457D01*
X124827381Y-95194381D02*
X124255952Y-95194381D01*
X124541666Y-95194381D02*
X124541666Y-94194381D01*
X124446428Y-94337238D01*
X124351190Y-94432476D01*
X124255952Y-94480095D01*
X125446428Y-94194381D02*
X125541667Y-94194381D01*
X125636905Y-94242000D01*
X125684524Y-94289619D01*
X125732143Y-94384857D01*
X125779762Y-94575333D01*
X125779762Y-94813429D01*
X125732143Y-95003905D01*
X125684524Y-95099143D01*
X125636905Y-95146762D01*
X125541667Y-95194381D01*
X125446428Y-95194381D01*
X125351190Y-95146762D01*
X125303571Y-95099143D01*
X125255952Y-95003905D01*
X125208333Y-94813429D01*
X125208333Y-94575333D01*
X125255952Y-94384857D01*
X125303571Y-94289619D01*
X125351190Y-94242000D01*
X125446428Y-94194381D01*
X126398809Y-94194381D02*
X126494048Y-94194381D01*
X126589286Y-94242000D01*
X126636905Y-94289619D01*
X126684524Y-94384857D01*
X126732143Y-94575333D01*
X126732143Y-94813429D01*
X126684524Y-95003905D01*
X126636905Y-95099143D01*
X126589286Y-95146762D01*
X126494048Y-95194381D01*
X126398809Y-95194381D01*
X126303571Y-95146762D01*
X126255952Y-95099143D01*
X126208333Y-95003905D01*
X126160714Y-94813429D01*
X126160714Y-94575333D01*
X126208333Y-94384857D01*
X126255952Y-94289619D01*
X126303571Y-94242000D01*
X126398809Y-94194381D01*
X127160714Y-94527714D02*
X127160714Y-95194381D01*
X127160714Y-94622952D02*
X127208333Y-94575333D01*
X127303571Y-94527714D01*
X127446429Y-94527714D01*
X127541667Y-94575333D01*
X127589286Y-94670571D01*
X127589286Y-95194381D01*
X128398810Y-94670571D02*
X128065476Y-94670571D01*
X128065476Y-95194381D02*
X128065476Y-94194381D01*
X128541667Y-94194381D01*
X125313572Y-89606381D02*
X124742143Y-89606381D01*
X125027857Y-89606381D02*
X125027857Y-88606381D01*
X124932619Y-88749238D01*
X124837381Y-88844476D01*
X124742143Y-88892095D01*
X125932619Y-88606381D02*
X126027858Y-88606381D01*
X126123096Y-88654000D01*
X126170715Y-88701619D01*
X126218334Y-88796857D01*
X126265953Y-88987333D01*
X126265953Y-89225429D01*
X126218334Y-89415905D01*
X126170715Y-89511143D01*
X126123096Y-89558762D01*
X126027858Y-89606381D01*
X125932619Y-89606381D01*
X125837381Y-89558762D01*
X125789762Y-89511143D01*
X125742143Y-89415905D01*
X125694524Y-89225429D01*
X125694524Y-88987333D01*
X125742143Y-88796857D01*
X125789762Y-88701619D01*
X125837381Y-88654000D01*
X125932619Y-88606381D01*
X127123096Y-88939714D02*
X127123096Y-89606381D01*
X126694524Y-88939714D02*
X126694524Y-89463524D01*
X126742143Y-89558762D01*
X126837381Y-89606381D01*
X126980239Y-89606381D01*
X127075477Y-89558762D01*
X127123096Y-89511143D01*
X127932620Y-89082571D02*
X127599286Y-89082571D01*
X127599286Y-89606381D02*
X127599286Y-88606381D01*
X128075477Y-88606381D01*
X133608167Y-106322881D02*
X133608167Y-107037167D01*
X133560547Y-107180024D01*
X133465309Y-107275262D01*
X133322452Y-107322881D01*
X133227214Y-107322881D01*
X134512929Y-106656214D02*
X134512929Y-107322881D01*
X134274833Y-106275262D02*
X134036738Y-106989548D01*
X134655786Y-106989548D01*
X123448167Y-106449881D02*
X123448167Y-107164167D01*
X123400547Y-107307024D01*
X123305309Y-107402262D01*
X123162452Y-107449881D01*
X123067214Y-107449881D01*
X123829119Y-106449881D02*
X124448167Y-106449881D01*
X124114833Y-106830833D01*
X124257691Y-106830833D01*
X124352929Y-106878452D01*
X124400548Y-106926071D01*
X124448167Y-107021310D01*
X124448167Y-107259405D01*
X124400548Y-107354643D01*
X124352929Y-107402262D01*
X124257691Y-107449881D01*
X123971976Y-107449881D01*
X123876738Y-107402262D01*
X123829119Y-107354643D01*
X113288167Y-106322881D02*
X113288167Y-107037167D01*
X113240547Y-107180024D01*
X113145309Y-107275262D01*
X113002452Y-107322881D01*
X112907214Y-107322881D01*
X113716738Y-106418119D02*
X113764357Y-106370500D01*
X113859595Y-106322881D01*
X114097691Y-106322881D01*
X114192929Y-106370500D01*
X114240548Y-106418119D01*
X114288167Y-106513357D01*
X114288167Y-106608595D01*
X114240548Y-106751452D01*
X113669119Y-107322881D01*
X114288167Y-107322881D01*
X103128167Y-106322881D02*
X103128167Y-107037167D01*
X103080547Y-107180024D01*
X102985309Y-107275262D01*
X102842452Y-107322881D01*
X102747214Y-107322881D01*
X104128167Y-107322881D02*
X103556738Y-107322881D01*
X103842452Y-107322881D02*
X103842452Y-106322881D01*
X103747214Y-106465738D01*
X103651976Y-106560976D01*
X103556738Y-106608595D01*
M02*
