G04 #@! TF.FileFunction,Other,User*
%FSLAX46Y46*%
G04 Gerber Fmt 4.6, Leading zero omitted, Abs format (unit mm)*
G04 Created by KiCad (PCBNEW 4.0.1-3.201512221402+6198~38~ubuntu14.04.1-stable) date Sat 30 Jul 2016 07:16:47 PM PDT*
%MOMM*%
G01*
G04 APERTURE LIST*
%ADD10C,0.100000*%
%ADD11C,0.050000*%
G04 APERTURE END LIST*
D10*
D11*
X131032500Y-97511500D02*
X136282500Y-97511500D01*
X131032500Y-86511500D02*
X131032500Y-97511500D01*
X136282500Y-86511500D02*
X131032500Y-86511500D01*
X136282500Y-97511500D02*
X136282500Y-86511500D01*
X97713340Y-98186000D02*
X113963340Y-98186000D01*
X97713340Y-86436000D02*
X97713340Y-98186000D01*
X113963340Y-86436000D02*
X97713340Y-86436000D01*
X113963340Y-98186000D02*
X113963340Y-86436000D01*
X136941500Y-98363500D02*
X130891500Y-98363500D01*
X136941500Y-104963500D02*
X130891500Y-104963500D01*
X136941500Y-98363500D02*
X136933940Y-104963500D01*
X130891500Y-98363500D02*
X130891500Y-104963500D01*
X126781500Y-98427000D02*
X120731500Y-98427000D01*
X126781500Y-105027000D02*
X120731500Y-105027000D01*
X126781500Y-98427000D02*
X126773940Y-105027000D01*
X120731500Y-98427000D02*
X120731500Y-105027000D01*
X116621500Y-98363500D02*
X110571500Y-98363500D01*
X116621500Y-104963500D02*
X110571500Y-104963500D01*
X116621500Y-98363500D02*
X116613940Y-104963500D01*
X110571500Y-98363500D02*
X110571500Y-104963500D01*
X106461500Y-98363500D02*
X100411500Y-98363500D01*
X106461500Y-104963500D02*
X100411500Y-104963500D01*
X106461500Y-98363500D02*
X106453940Y-104963500D01*
X100411500Y-98363500D02*
X100411500Y-104963500D01*
X116211600Y-97295600D02*
X121461600Y-97295600D01*
X116211600Y-86295600D02*
X116211600Y-97295600D01*
X121461600Y-86295600D02*
X116211600Y-86295600D01*
X121461600Y-97295600D02*
X121461600Y-86295600D01*
X130325000Y-97242000D02*
X122325000Y-97242000D01*
X122325000Y-97242000D02*
X122325000Y-92242000D01*
X122325000Y-92242000D02*
X130325000Y-92242000D01*
X130325000Y-92242000D02*
X130325000Y-97242000D01*
X128535000Y-90654000D02*
X124235000Y-90654000D01*
X124235000Y-90654000D02*
X124235000Y-87654000D01*
X124235000Y-87654000D02*
X128535000Y-87654000D01*
X128535000Y-87654000D02*
X128535000Y-90654000D01*
X136941500Y-105120500D02*
X130891500Y-105120500D01*
X136941500Y-108620500D02*
X130891500Y-108620500D01*
X136941500Y-105120500D02*
X136941500Y-108620500D01*
X130891500Y-105120500D02*
X130891500Y-108620500D01*
X126781500Y-105247500D02*
X120731500Y-105247500D01*
X126781500Y-108747500D02*
X120731500Y-108747500D01*
X126781500Y-105247500D02*
X126781500Y-108747500D01*
X120731500Y-105247500D02*
X120731500Y-108747500D01*
X116621500Y-105120500D02*
X110571500Y-105120500D01*
X116621500Y-108620500D02*
X110571500Y-108620500D01*
X116621500Y-105120500D02*
X116621500Y-108620500D01*
X110571500Y-105120500D02*
X110571500Y-108620500D01*
X106461500Y-105120500D02*
X100411500Y-105120500D01*
X106461500Y-108620500D02*
X100411500Y-108620500D01*
X106461500Y-105120500D02*
X106461500Y-108620500D01*
X100411500Y-105120500D02*
X100411500Y-108620500D01*
M02*
