G04 #@! TF.FileFunction,Soldermask,Bot*
%FSLAX46Y46*%
G04 Gerber Fmt 4.6, Leading zero omitted, Abs format (unit mm)*
G04 Created by KiCad (PCBNEW 4.0.1-3.201512221402+6198~38~ubuntu14.04.1-stable) date Sat 30 Jul 2016 07:16:47 PM PDT*
%MOMM*%
G01*
G04 APERTURE LIST*
%ADD10C,0.100000*%
G04 APERTURE END LIST*
D10*
G36*
X122711080Y-105922317D02*
X122711090Y-105922320D01*
X122711117Y-105922323D01*
X122914745Y-105985356D01*
X123102250Y-106086740D01*
X123266493Y-106222614D01*
X123401217Y-106387801D01*
X123501289Y-106576010D01*
X123562899Y-106780072D01*
X123583700Y-106992215D01*
X123583700Y-107002785D01*
X123583594Y-107018034D01*
X123559833Y-107229866D01*
X123495380Y-107433048D01*
X123392689Y-107619842D01*
X123255672Y-107783132D01*
X123089549Y-107916699D01*
X122900645Y-108015455D01*
X122696158Y-108075639D01*
X122696130Y-108075642D01*
X122696122Y-108075644D01*
X122483876Y-108094959D01*
X122271920Y-108072683D01*
X122271910Y-108072680D01*
X122271883Y-108072677D01*
X122068255Y-108009644D01*
X121880750Y-107908260D01*
X121716507Y-107772386D01*
X121581783Y-107607199D01*
X121481711Y-107418990D01*
X121420101Y-107214928D01*
X121399300Y-107002785D01*
X121399300Y-106992215D01*
X121399406Y-106976966D01*
X121423167Y-106765134D01*
X121487620Y-106561952D01*
X121590311Y-106375158D01*
X121727328Y-106211868D01*
X121893451Y-106078301D01*
X122082355Y-105979545D01*
X122286842Y-105919361D01*
X122286870Y-105919358D01*
X122286878Y-105919356D01*
X122499124Y-105900041D01*
X122711080Y-105922317D01*
X122711080Y-105922317D01*
G37*
G36*
X126123700Y-108089700D02*
X123939300Y-108089700D01*
X123939300Y-105905300D01*
X126123700Y-105905300D01*
X126123700Y-108089700D01*
X126123700Y-108089700D01*
G37*
G36*
X102391080Y-105795317D02*
X102391090Y-105795320D01*
X102391117Y-105795323D01*
X102594745Y-105858356D01*
X102782250Y-105959740D01*
X102946493Y-106095614D01*
X103081217Y-106260801D01*
X103181289Y-106449010D01*
X103242899Y-106653072D01*
X103263700Y-106865215D01*
X103263700Y-106875785D01*
X103263594Y-106891034D01*
X103239833Y-107102866D01*
X103175380Y-107306048D01*
X103072689Y-107492842D01*
X102935672Y-107656132D01*
X102769549Y-107789699D01*
X102580645Y-107888455D01*
X102376158Y-107948639D01*
X102376130Y-107948642D01*
X102376122Y-107948644D01*
X102163876Y-107967959D01*
X101951920Y-107945683D01*
X101951910Y-107945680D01*
X101951883Y-107945677D01*
X101748255Y-107882644D01*
X101560750Y-107781260D01*
X101396507Y-107645386D01*
X101261783Y-107480199D01*
X101161711Y-107291990D01*
X101100101Y-107087928D01*
X101079300Y-106875785D01*
X101079300Y-106865215D01*
X101079406Y-106849966D01*
X101103167Y-106638134D01*
X101167620Y-106434952D01*
X101270311Y-106248158D01*
X101407328Y-106084868D01*
X101573451Y-105951301D01*
X101762355Y-105852545D01*
X101966842Y-105792361D01*
X101966870Y-105792358D01*
X101966878Y-105792356D01*
X102179124Y-105773041D01*
X102391080Y-105795317D01*
X102391080Y-105795317D01*
G37*
G36*
X112551080Y-105795317D02*
X112551090Y-105795320D01*
X112551117Y-105795323D01*
X112754745Y-105858356D01*
X112942250Y-105959740D01*
X113106493Y-106095614D01*
X113241217Y-106260801D01*
X113341289Y-106449010D01*
X113402899Y-106653072D01*
X113423700Y-106865215D01*
X113423700Y-106875785D01*
X113423594Y-106891034D01*
X113399833Y-107102866D01*
X113335380Y-107306048D01*
X113232689Y-107492842D01*
X113095672Y-107656132D01*
X112929549Y-107789699D01*
X112740645Y-107888455D01*
X112536158Y-107948639D01*
X112536130Y-107948642D01*
X112536122Y-107948644D01*
X112323876Y-107967959D01*
X112111920Y-107945683D01*
X112111910Y-107945680D01*
X112111883Y-107945677D01*
X111908255Y-107882644D01*
X111720750Y-107781260D01*
X111556507Y-107645386D01*
X111421783Y-107480199D01*
X111321711Y-107291990D01*
X111260101Y-107087928D01*
X111239300Y-106875785D01*
X111239300Y-106865215D01*
X111239406Y-106849966D01*
X111263167Y-106638134D01*
X111327620Y-106434952D01*
X111430311Y-106248158D01*
X111567328Y-106084868D01*
X111733451Y-105951301D01*
X111922355Y-105852545D01*
X112126842Y-105792361D01*
X112126870Y-105792358D01*
X112126878Y-105792356D01*
X112339124Y-105773041D01*
X112551080Y-105795317D01*
X112551080Y-105795317D01*
G37*
G36*
X132871080Y-105795317D02*
X132871090Y-105795320D01*
X132871117Y-105795323D01*
X133074745Y-105858356D01*
X133262250Y-105959740D01*
X133426493Y-106095614D01*
X133561217Y-106260801D01*
X133661289Y-106449010D01*
X133722899Y-106653072D01*
X133743700Y-106865215D01*
X133743700Y-106875785D01*
X133743594Y-106891034D01*
X133719833Y-107102866D01*
X133655380Y-107306048D01*
X133552689Y-107492842D01*
X133415672Y-107656132D01*
X133249549Y-107789699D01*
X133060645Y-107888455D01*
X132856158Y-107948639D01*
X132856130Y-107948642D01*
X132856122Y-107948644D01*
X132643876Y-107967959D01*
X132431920Y-107945683D01*
X132431910Y-107945680D01*
X132431883Y-107945677D01*
X132228255Y-107882644D01*
X132040750Y-107781260D01*
X131876507Y-107645386D01*
X131741783Y-107480199D01*
X131641711Y-107291990D01*
X131580101Y-107087928D01*
X131559300Y-106875785D01*
X131559300Y-106865215D01*
X131559406Y-106849966D01*
X131583167Y-106638134D01*
X131647620Y-106434952D01*
X131750311Y-106248158D01*
X131887328Y-106084868D01*
X132053451Y-105951301D01*
X132242355Y-105852545D01*
X132446842Y-105792361D01*
X132446870Y-105792358D01*
X132446878Y-105792356D01*
X132659124Y-105773041D01*
X132871080Y-105795317D01*
X132871080Y-105795317D01*
G37*
G36*
X136283700Y-107962700D02*
X134099300Y-107962700D01*
X134099300Y-105778300D01*
X136283700Y-105778300D01*
X136283700Y-107962700D01*
X136283700Y-107962700D01*
G37*
G36*
X105803700Y-107962700D02*
X103619300Y-107962700D01*
X103619300Y-105778300D01*
X105803700Y-105778300D01*
X105803700Y-107962700D01*
X105803700Y-107962700D01*
G37*
G36*
X115963700Y-107962700D02*
X113779300Y-107962700D01*
X113779300Y-105778300D01*
X115963700Y-105778300D01*
X115963700Y-107962700D01*
X115963700Y-107962700D01*
G37*
G36*
X122711080Y-100651817D02*
X122711090Y-100651820D01*
X122711117Y-100651823D01*
X122914745Y-100714856D01*
X123102250Y-100816240D01*
X123266493Y-100952114D01*
X123401217Y-101117301D01*
X123501289Y-101305510D01*
X123562899Y-101509572D01*
X123583700Y-101721715D01*
X123583700Y-101732285D01*
X123583594Y-101747534D01*
X123559833Y-101959366D01*
X123495380Y-102162548D01*
X123392689Y-102349342D01*
X123255672Y-102512632D01*
X123089549Y-102646199D01*
X122900645Y-102744955D01*
X122696158Y-102805139D01*
X122696130Y-102805142D01*
X122696122Y-102805144D01*
X122483876Y-102824459D01*
X122271920Y-102802183D01*
X122271910Y-102802180D01*
X122271883Y-102802177D01*
X122068255Y-102739144D01*
X121880750Y-102637760D01*
X121716507Y-102501886D01*
X121581783Y-102336699D01*
X121481711Y-102148490D01*
X121420101Y-101944428D01*
X121399300Y-101732285D01*
X121399300Y-101721715D01*
X121399406Y-101706466D01*
X121423167Y-101494634D01*
X121487620Y-101291452D01*
X121590311Y-101104658D01*
X121727328Y-100941368D01*
X121893451Y-100807801D01*
X122082355Y-100709045D01*
X122286842Y-100648861D01*
X122286870Y-100648858D01*
X122286878Y-100648856D01*
X122499124Y-100629541D01*
X122711080Y-100651817D01*
X122711080Y-100651817D01*
G37*
G36*
X126123700Y-102819200D02*
X123939300Y-102819200D01*
X123939300Y-100634800D01*
X126123700Y-100634800D01*
X126123700Y-102819200D01*
X126123700Y-102819200D01*
G37*
G36*
X112551080Y-100588317D02*
X112551090Y-100588320D01*
X112551117Y-100588323D01*
X112754745Y-100651356D01*
X112942250Y-100752740D01*
X113106493Y-100888614D01*
X113241217Y-101053801D01*
X113341289Y-101242010D01*
X113402899Y-101446072D01*
X113423700Y-101658215D01*
X113423700Y-101668785D01*
X113423594Y-101684034D01*
X113399833Y-101895866D01*
X113335380Y-102099048D01*
X113232689Y-102285842D01*
X113095672Y-102449132D01*
X112929549Y-102582699D01*
X112740645Y-102681455D01*
X112536158Y-102741639D01*
X112536130Y-102741642D01*
X112536122Y-102741644D01*
X112323876Y-102760959D01*
X112111920Y-102738683D01*
X112111910Y-102738680D01*
X112111883Y-102738677D01*
X111908255Y-102675644D01*
X111720750Y-102574260D01*
X111556507Y-102438386D01*
X111421783Y-102273199D01*
X111321711Y-102084990D01*
X111260101Y-101880928D01*
X111239300Y-101668785D01*
X111239300Y-101658215D01*
X111239406Y-101642966D01*
X111263167Y-101431134D01*
X111327620Y-101227952D01*
X111430311Y-101041158D01*
X111567328Y-100877868D01*
X111733451Y-100744301D01*
X111922355Y-100645545D01*
X112126842Y-100585361D01*
X112126870Y-100585358D01*
X112126878Y-100585356D01*
X112339124Y-100566041D01*
X112551080Y-100588317D01*
X112551080Y-100588317D01*
G37*
G36*
X102391080Y-100588317D02*
X102391090Y-100588320D01*
X102391117Y-100588323D01*
X102594745Y-100651356D01*
X102782250Y-100752740D01*
X102946493Y-100888614D01*
X103081217Y-101053801D01*
X103181289Y-101242010D01*
X103242899Y-101446072D01*
X103263700Y-101658215D01*
X103263700Y-101668785D01*
X103263594Y-101684034D01*
X103239833Y-101895866D01*
X103175380Y-102099048D01*
X103072689Y-102285842D01*
X102935672Y-102449132D01*
X102769549Y-102582699D01*
X102580645Y-102681455D01*
X102376158Y-102741639D01*
X102376130Y-102741642D01*
X102376122Y-102741644D01*
X102163876Y-102760959D01*
X101951920Y-102738683D01*
X101951910Y-102738680D01*
X101951883Y-102738677D01*
X101748255Y-102675644D01*
X101560750Y-102574260D01*
X101396507Y-102438386D01*
X101261783Y-102273199D01*
X101161711Y-102084990D01*
X101100101Y-101880928D01*
X101079300Y-101668785D01*
X101079300Y-101658215D01*
X101079406Y-101642966D01*
X101103167Y-101431134D01*
X101167620Y-101227952D01*
X101270311Y-101041158D01*
X101407328Y-100877868D01*
X101573451Y-100744301D01*
X101762355Y-100645545D01*
X101966842Y-100585361D01*
X101966870Y-100585358D01*
X101966878Y-100585356D01*
X102179124Y-100566041D01*
X102391080Y-100588317D01*
X102391080Y-100588317D01*
G37*
G36*
X132871080Y-100588317D02*
X132871090Y-100588320D01*
X132871117Y-100588323D01*
X133074745Y-100651356D01*
X133262250Y-100752740D01*
X133426493Y-100888614D01*
X133561217Y-101053801D01*
X133661289Y-101242010D01*
X133722899Y-101446072D01*
X133743700Y-101658215D01*
X133743700Y-101668785D01*
X133743594Y-101684034D01*
X133719833Y-101895866D01*
X133655380Y-102099048D01*
X133552689Y-102285842D01*
X133415672Y-102449132D01*
X133249549Y-102582699D01*
X133060645Y-102681455D01*
X132856158Y-102741639D01*
X132856130Y-102741642D01*
X132856122Y-102741644D01*
X132643876Y-102760959D01*
X132431920Y-102738683D01*
X132431910Y-102738680D01*
X132431883Y-102738677D01*
X132228255Y-102675644D01*
X132040750Y-102574260D01*
X131876507Y-102438386D01*
X131741783Y-102273199D01*
X131641711Y-102084990D01*
X131580101Y-101880928D01*
X131559300Y-101668785D01*
X131559300Y-101658215D01*
X131559406Y-101642966D01*
X131583167Y-101431134D01*
X131647620Y-101227952D01*
X131750311Y-101041158D01*
X131887328Y-100877868D01*
X132053451Y-100744301D01*
X132242355Y-100645545D01*
X132446842Y-100585361D01*
X132446870Y-100585358D01*
X132446878Y-100585356D01*
X132659124Y-100566041D01*
X132871080Y-100588317D01*
X132871080Y-100588317D01*
G37*
G36*
X136283700Y-102755700D02*
X134099300Y-102755700D01*
X134099300Y-100571300D01*
X136283700Y-100571300D01*
X136283700Y-102755700D01*
X136283700Y-102755700D01*
G37*
G36*
X105803700Y-102755700D02*
X103619300Y-102755700D01*
X103619300Y-100571300D01*
X105803700Y-100571300D01*
X105803700Y-102755700D01*
X105803700Y-102755700D01*
G37*
G36*
X115963700Y-102755700D02*
X113779300Y-102755700D01*
X113779300Y-100571300D01*
X115963700Y-100571300D01*
X115963700Y-102755700D01*
X115963700Y-102755700D01*
G37*
G36*
X108871833Y-93905117D02*
X109252434Y-93983243D01*
X109610608Y-94133807D01*
X109932713Y-94351068D01*
X110206493Y-94626768D01*
X110421501Y-94950380D01*
X110569561Y-95309601D01*
X110644975Y-95690468D01*
X110644975Y-95690480D01*
X110645025Y-95690733D01*
X110638828Y-96134512D01*
X110638771Y-96134762D01*
X110638771Y-96134774D01*
X110552752Y-96513389D01*
X110394720Y-96868335D01*
X110170757Y-97185823D01*
X109889393Y-97453762D01*
X109561344Y-97661948D01*
X109199099Y-97802453D01*
X108816474Y-97869921D01*
X108428020Y-97861784D01*
X108048552Y-97778352D01*
X107692517Y-97622805D01*
X107373473Y-97401062D01*
X107103572Y-97121573D01*
X106893099Y-96794982D01*
X106750072Y-96433737D01*
X106679933Y-96051583D01*
X106685358Y-95663088D01*
X106766138Y-95283047D01*
X106919199Y-94925931D01*
X107138709Y-94605344D01*
X107416302Y-94333505D01*
X107741416Y-94120756D01*
X108101659Y-93975209D01*
X108483309Y-93902405D01*
X108871833Y-93905117D01*
X108871833Y-93905117D01*
G37*
G36*
X123906526Y-93966315D02*
X124055641Y-93996924D01*
X124195968Y-94055912D01*
X124322160Y-94141029D01*
X124429427Y-94249047D01*
X124513661Y-94375831D01*
X124571669Y-94516570D01*
X124601183Y-94665625D01*
X124601183Y-94665632D01*
X124601234Y-94665890D01*
X124598806Y-94839754D01*
X124598748Y-94840009D01*
X124598748Y-94840016D01*
X124565083Y-94988192D01*
X124503169Y-95127255D01*
X124415424Y-95251641D01*
X124305192Y-95356614D01*
X124176667Y-95438177D01*
X124176665Y-95438178D01*
X124146659Y-95449816D01*
X124034743Y-95493226D01*
X123884841Y-95519658D01*
X123732648Y-95516470D01*
X123583978Y-95483783D01*
X123444493Y-95422844D01*
X123319493Y-95335966D01*
X123213755Y-95226471D01*
X123131292Y-95098514D01*
X123075257Y-94956987D01*
X123047778Y-94807264D01*
X123049903Y-94655058D01*
X123081551Y-94506166D01*
X123141518Y-94366253D01*
X123227517Y-94240654D01*
X123336277Y-94134150D01*
X123463648Y-94050800D01*
X123604789Y-93993775D01*
X123754310Y-93965253D01*
X123906526Y-93966315D01*
X123906526Y-93966315D01*
G37*
G36*
X129601200Y-95518200D02*
X128048800Y-95518200D01*
X128048800Y-93965800D01*
X129601200Y-93965800D01*
X129601200Y-95518200D01*
X129601200Y-95518200D01*
G37*
G36*
X133953142Y-93625749D02*
X133953144Y-93625749D01*
X133954693Y-93625760D01*
X134134257Y-93645902D01*
X134306489Y-93700537D01*
X134464829Y-93787585D01*
X134603246Y-93903731D01*
X134716468Y-94044550D01*
X134800181Y-94204678D01*
X134851197Y-94378017D01*
X134851199Y-94378040D01*
X134851203Y-94378053D01*
X134867576Y-94557962D01*
X134848692Y-94737627D01*
X134848689Y-94737637D01*
X134848686Y-94737664D01*
X134795255Y-94910274D01*
X134709314Y-95069218D01*
X134594137Y-95208442D01*
X134454112Y-95322643D01*
X134294572Y-95407472D01*
X134121594Y-95459698D01*
X133941766Y-95477330D01*
X132123172Y-95477330D01*
X132111858Y-95477251D01*
X132111856Y-95477251D01*
X132110307Y-95477240D01*
X131930743Y-95457098D01*
X131758511Y-95402463D01*
X131600171Y-95315415D01*
X131461754Y-95199269D01*
X131348532Y-95058450D01*
X131264819Y-94898322D01*
X131213803Y-94724983D01*
X131213801Y-94724960D01*
X131213797Y-94724947D01*
X131197424Y-94545038D01*
X131216308Y-94365373D01*
X131216311Y-94365363D01*
X131216314Y-94365336D01*
X131269745Y-94192726D01*
X131355686Y-94033782D01*
X131470863Y-93894558D01*
X131610888Y-93780357D01*
X131770428Y-93695528D01*
X131943406Y-93643302D01*
X132123234Y-93625670D01*
X133941828Y-93625670D01*
X133953142Y-93625749D01*
X133953142Y-93625749D01*
G37*
G36*
X119132242Y-93409849D02*
X119132244Y-93409849D01*
X119133793Y-93409860D01*
X119313357Y-93430002D01*
X119485589Y-93484637D01*
X119643929Y-93571685D01*
X119782346Y-93687831D01*
X119895568Y-93828650D01*
X119979281Y-93988778D01*
X120030297Y-94162117D01*
X120030299Y-94162140D01*
X120030303Y-94162153D01*
X120046676Y-94342062D01*
X120027792Y-94521727D01*
X120027789Y-94521737D01*
X120027786Y-94521764D01*
X119974355Y-94694374D01*
X119888414Y-94853318D01*
X119773237Y-94992542D01*
X119633212Y-95106743D01*
X119473672Y-95191572D01*
X119300694Y-95243798D01*
X119120866Y-95261430D01*
X117302272Y-95261430D01*
X117290958Y-95261351D01*
X117290956Y-95261351D01*
X117289407Y-95261340D01*
X117109843Y-95241198D01*
X116937611Y-95186563D01*
X116779271Y-95099515D01*
X116640854Y-94983369D01*
X116527632Y-94842550D01*
X116443919Y-94682422D01*
X116392903Y-94509083D01*
X116392901Y-94509060D01*
X116392897Y-94509047D01*
X116376524Y-94329138D01*
X116395408Y-94149473D01*
X116395411Y-94149463D01*
X116395414Y-94149436D01*
X116448845Y-93976826D01*
X116534786Y-93817882D01*
X116649963Y-93678658D01*
X116789988Y-93564457D01*
X116949528Y-93479628D01*
X117122506Y-93427402D01*
X117302334Y-93409770D01*
X119120928Y-93409770D01*
X119132242Y-93409849D01*
X119132242Y-93409849D01*
G37*
G36*
X111871573Y-89206117D02*
X112252174Y-89284243D01*
X112610348Y-89434807D01*
X112932453Y-89652068D01*
X113206233Y-89927768D01*
X113421241Y-90251380D01*
X113569301Y-90610601D01*
X113644715Y-90991468D01*
X113644715Y-90991480D01*
X113644765Y-90991733D01*
X113638568Y-91435512D01*
X113638511Y-91435762D01*
X113638511Y-91435774D01*
X113552492Y-91814389D01*
X113394460Y-92169335D01*
X113170497Y-92486823D01*
X112889133Y-92754762D01*
X112561084Y-92962948D01*
X112198839Y-93103453D01*
X111816214Y-93170921D01*
X111427760Y-93162784D01*
X111048292Y-93079352D01*
X110692257Y-92923805D01*
X110373213Y-92702062D01*
X110103312Y-92422573D01*
X109892839Y-92095982D01*
X109749812Y-91734737D01*
X109679673Y-91352583D01*
X109685098Y-90964088D01*
X109765878Y-90584047D01*
X109918939Y-90226931D01*
X110138449Y-89906344D01*
X110416042Y-89634505D01*
X110741156Y-89421756D01*
X111101399Y-89276209D01*
X111483049Y-89203405D01*
X111871573Y-89206117D01*
X111871573Y-89206117D01*
G37*
G36*
X105872093Y-89206117D02*
X106252694Y-89284243D01*
X106610868Y-89434807D01*
X106932973Y-89652068D01*
X107206753Y-89927768D01*
X107421761Y-90251380D01*
X107569821Y-90610601D01*
X107645235Y-90991468D01*
X107645235Y-90991480D01*
X107645285Y-90991733D01*
X107639088Y-91435512D01*
X107639031Y-91435762D01*
X107639031Y-91435774D01*
X107553012Y-91814389D01*
X107394980Y-92169335D01*
X107171017Y-92486823D01*
X106889653Y-92754762D01*
X106561604Y-92962948D01*
X106199359Y-93103453D01*
X105816734Y-93170921D01*
X105428280Y-93162784D01*
X105048812Y-93079352D01*
X104692777Y-92923805D01*
X104373733Y-92702062D01*
X104103832Y-92422573D01*
X103893359Y-92095982D01*
X103750332Y-91734737D01*
X103680193Y-91352583D01*
X103685618Y-90964088D01*
X103766398Y-90584047D01*
X103919459Y-90226931D01*
X104138969Y-89906344D01*
X104416562Y-89634505D01*
X104741676Y-89421756D01*
X105101919Y-89276209D01*
X105483569Y-89203405D01*
X105872093Y-89206117D01*
X105872093Y-89206117D01*
G37*
G36*
X133953142Y-91085749D02*
X133953144Y-91085749D01*
X133954693Y-91085760D01*
X134134257Y-91105902D01*
X134306489Y-91160537D01*
X134464829Y-91247585D01*
X134603246Y-91363731D01*
X134716468Y-91504550D01*
X134800181Y-91664678D01*
X134851197Y-91838017D01*
X134851199Y-91838040D01*
X134851203Y-91838053D01*
X134867576Y-92017962D01*
X134848692Y-92197627D01*
X134848689Y-92197637D01*
X134848686Y-92197664D01*
X134795255Y-92370274D01*
X134709314Y-92529218D01*
X134594137Y-92668442D01*
X134454112Y-92782643D01*
X134294572Y-92867472D01*
X134121594Y-92919698D01*
X133941766Y-92937330D01*
X132123172Y-92937330D01*
X132111858Y-92937251D01*
X132111856Y-92937251D01*
X132110307Y-92937240D01*
X131930743Y-92917098D01*
X131758511Y-92862463D01*
X131600171Y-92775415D01*
X131461754Y-92659269D01*
X131348532Y-92518450D01*
X131264819Y-92358322D01*
X131213803Y-92184983D01*
X131213801Y-92184960D01*
X131213797Y-92184947D01*
X131197424Y-92005038D01*
X131216308Y-91825373D01*
X131216311Y-91825363D01*
X131216314Y-91825336D01*
X131269745Y-91652726D01*
X131355686Y-91493782D01*
X131470863Y-91354558D01*
X131610888Y-91240357D01*
X131770428Y-91155528D01*
X131943406Y-91103302D01*
X132123234Y-91085670D01*
X133941828Y-91085670D01*
X133953142Y-91085749D01*
X133953142Y-91085749D01*
G37*
G36*
X119132242Y-90869849D02*
X119132244Y-90869849D01*
X119133793Y-90869860D01*
X119313357Y-90890002D01*
X119485589Y-90944637D01*
X119643929Y-91031685D01*
X119782346Y-91147831D01*
X119895568Y-91288650D01*
X119979281Y-91448778D01*
X120030297Y-91622117D01*
X120030299Y-91622140D01*
X120030303Y-91622153D01*
X120046676Y-91802062D01*
X120027792Y-91981727D01*
X120027789Y-91981737D01*
X120027786Y-91981764D01*
X119974355Y-92154374D01*
X119888414Y-92313318D01*
X119773237Y-92452542D01*
X119633212Y-92566743D01*
X119473672Y-92651572D01*
X119300694Y-92703798D01*
X119120866Y-92721430D01*
X117302272Y-92721430D01*
X117290958Y-92721351D01*
X117290956Y-92721351D01*
X117289407Y-92721340D01*
X117109843Y-92701198D01*
X116937611Y-92646563D01*
X116779271Y-92559515D01*
X116640854Y-92443369D01*
X116527632Y-92302550D01*
X116443919Y-92142422D01*
X116392903Y-91969083D01*
X116392901Y-91969060D01*
X116392897Y-91969047D01*
X116376524Y-91789138D01*
X116395408Y-91609473D01*
X116395411Y-91609463D01*
X116395414Y-91609436D01*
X116448845Y-91436826D01*
X116534786Y-91277882D01*
X116649963Y-91138658D01*
X116789988Y-91024457D01*
X116949528Y-90939628D01*
X117122506Y-90887402D01*
X117302334Y-90869770D01*
X119120928Y-90869770D01*
X119132242Y-90869849D01*
X119132242Y-90869849D01*
G37*
G36*
X133953142Y-88545749D02*
X133953144Y-88545749D01*
X133954693Y-88545760D01*
X134134257Y-88565902D01*
X134306489Y-88620537D01*
X134464829Y-88707585D01*
X134603246Y-88823731D01*
X134716468Y-88964550D01*
X134800181Y-89124678D01*
X134851197Y-89298017D01*
X134851199Y-89298040D01*
X134851203Y-89298053D01*
X134867576Y-89477962D01*
X134848692Y-89657627D01*
X134848689Y-89657637D01*
X134848686Y-89657664D01*
X134795255Y-89830274D01*
X134709314Y-89989218D01*
X134594137Y-90128442D01*
X134454112Y-90242643D01*
X134294572Y-90327472D01*
X134121594Y-90379698D01*
X133941766Y-90397330D01*
X132123172Y-90397330D01*
X132111858Y-90397251D01*
X132111856Y-90397251D01*
X132110307Y-90397240D01*
X131930743Y-90377098D01*
X131758511Y-90322463D01*
X131600171Y-90235415D01*
X131461754Y-90119269D01*
X131348532Y-89978450D01*
X131264819Y-89818322D01*
X131213803Y-89644983D01*
X131213801Y-89644960D01*
X131213797Y-89644947D01*
X131197424Y-89465038D01*
X131216308Y-89285373D01*
X131216311Y-89285363D01*
X131216314Y-89285336D01*
X131269745Y-89112726D01*
X131355686Y-88953782D01*
X131470863Y-88814558D01*
X131610888Y-88700357D01*
X131770428Y-88615528D01*
X131943406Y-88563302D01*
X132123234Y-88545670D01*
X133941828Y-88545670D01*
X133953142Y-88545749D01*
X133953142Y-88545749D01*
G37*
G36*
X119132242Y-88329849D02*
X119132244Y-88329849D01*
X119133793Y-88329860D01*
X119313357Y-88350002D01*
X119485589Y-88404637D01*
X119643929Y-88491685D01*
X119782346Y-88607831D01*
X119895568Y-88748650D01*
X119979281Y-88908778D01*
X120030297Y-89082117D01*
X120030299Y-89082140D01*
X120030303Y-89082153D01*
X120046676Y-89262062D01*
X120027792Y-89441727D01*
X120027789Y-89441737D01*
X120027786Y-89441764D01*
X119974355Y-89614374D01*
X119888414Y-89773318D01*
X119773237Y-89912542D01*
X119633212Y-90026743D01*
X119473672Y-90111572D01*
X119300694Y-90163798D01*
X119120866Y-90181430D01*
X117302272Y-90181430D01*
X117290958Y-90181351D01*
X117290956Y-90181351D01*
X117289407Y-90181340D01*
X117109843Y-90161198D01*
X116937611Y-90106563D01*
X116779271Y-90019515D01*
X116640854Y-89903369D01*
X116527632Y-89762550D01*
X116443919Y-89602422D01*
X116392903Y-89429083D01*
X116392901Y-89429060D01*
X116392897Y-89429047D01*
X116376524Y-89249138D01*
X116395408Y-89069473D01*
X116395411Y-89069463D01*
X116395414Y-89069436D01*
X116448845Y-88896826D01*
X116534786Y-88737882D01*
X116649963Y-88598658D01*
X116789988Y-88484457D01*
X116949528Y-88399628D01*
X117122506Y-88347402D01*
X117302334Y-88329770D01*
X119120928Y-88329770D01*
X119132242Y-88329849D01*
X119132242Y-88329849D01*
G37*
G36*
X125211275Y-88428282D02*
X125350784Y-88456919D01*
X125482071Y-88512108D01*
X125600134Y-88591741D01*
X125700492Y-88692803D01*
X125779300Y-88811418D01*
X125833571Y-88943091D01*
X125861181Y-89082528D01*
X125861181Y-89082539D01*
X125861231Y-89082792D01*
X125858960Y-89245457D01*
X125858902Y-89245712D01*
X125858902Y-89245719D01*
X125827410Y-89384333D01*
X125769483Y-89514438D01*
X125687391Y-89630812D01*
X125584260Y-89729023D01*
X125464014Y-89805332D01*
X125331232Y-89856835D01*
X125190986Y-89881565D01*
X125048596Y-89878582D01*
X124909505Y-89848001D01*
X124779004Y-89790986D01*
X124662056Y-89709705D01*
X124563129Y-89607263D01*
X124485978Y-89487548D01*
X124433553Y-89355138D01*
X124407843Y-89215059D01*
X124409832Y-89072658D01*
X124439441Y-88933358D01*
X124495545Y-88802457D01*
X124576004Y-88684949D01*
X124677759Y-88585305D01*
X124796927Y-88507323D01*
X124928972Y-88453974D01*
X125068863Y-88427288D01*
X125211275Y-88428282D01*
X125211275Y-88428282D01*
G37*
G36*
X128361200Y-89880200D02*
X126908800Y-89880200D01*
X126908800Y-88427800D01*
X128361200Y-88427800D01*
X128361200Y-89880200D01*
X128361200Y-89880200D01*
G37*
M02*
