G04 #@! TF.FileFunction,Legend,Bot*
%FSLAX46Y46*%
G04 Gerber Fmt 4.6, Leading zero omitted, Abs format (unit mm)*
G04 Created by KiCad (PCBNEW 4.0.1-3.201512221402+6198~38~ubuntu14.04.1-stable) date Sat 30 Jul 2016 07:40:51 PM PDT*
%MOMM*%
G01*
G04 APERTURE LIST*
%ADD10C,0.100000*%
%ADD11C,0.203200*%
%ADD12C,0.300000*%
G04 APERTURE END LIST*
D10*
D11*
X143667237Y-110018286D02*
X143473713Y-110695619D01*
X143280190Y-110211810D01*
X143086666Y-110695619D01*
X142893142Y-110018286D01*
X142506094Y-110695619D02*
X142506094Y-110018286D01*
X142506094Y-109679619D02*
X142554475Y-109728000D01*
X142506094Y-109776381D01*
X142457713Y-109728000D01*
X142506094Y-109679619D01*
X142506094Y-109776381D01*
X141586856Y-110647238D02*
X141683618Y-110695619D01*
X141877141Y-110695619D01*
X141973903Y-110647238D01*
X142022284Y-110598857D01*
X142070665Y-110502095D01*
X142070665Y-110211810D01*
X142022284Y-110115048D01*
X141973903Y-110066667D01*
X141877141Y-110018286D01*
X141683618Y-110018286D01*
X141586856Y-110066667D01*
X141151427Y-110695619D02*
X141151427Y-109679619D01*
X141054665Y-110308571D02*
X140764380Y-110695619D01*
X140764380Y-110018286D02*
X141151427Y-110405333D01*
X139941904Y-110647238D02*
X140038666Y-110695619D01*
X140232189Y-110695619D01*
X140328951Y-110647238D01*
X140377332Y-110550476D01*
X140377332Y-110163429D01*
X140328951Y-110066667D01*
X140232189Y-110018286D01*
X140038666Y-110018286D01*
X139941904Y-110066667D01*
X139893523Y-110163429D01*
X139893523Y-110260190D01*
X140377332Y-110356952D01*
X139458094Y-110695619D02*
X139458094Y-110018286D01*
X139458094Y-110211810D02*
X139409713Y-110115048D01*
X139361332Y-110066667D01*
X139264570Y-110018286D01*
X139167809Y-110018286D01*
X138829142Y-110695619D02*
X138829142Y-109679619D01*
X138829142Y-110066667D02*
X138732380Y-110018286D01*
X138538857Y-110018286D01*
X138442095Y-110066667D01*
X138393714Y-110115048D01*
X138345333Y-110211810D01*
X138345333Y-110502095D01*
X138393714Y-110598857D01*
X138442095Y-110647238D01*
X138538857Y-110695619D01*
X138732380Y-110695619D01*
X138829142Y-110647238D01*
X137764761Y-110695619D02*
X137861523Y-110647238D01*
X137909904Y-110598857D01*
X137958285Y-110502095D01*
X137958285Y-110211810D01*
X137909904Y-110115048D01*
X137861523Y-110066667D01*
X137764761Y-110018286D01*
X137619619Y-110018286D01*
X137522857Y-110066667D01*
X137474476Y-110115048D01*
X137426095Y-110211810D01*
X137426095Y-110502095D01*
X137474476Y-110598857D01*
X137522857Y-110647238D01*
X137619619Y-110695619D01*
X137764761Y-110695619D01*
X137087428Y-110695619D02*
X136555238Y-110018286D01*
X137087428Y-110018286D02*
X136555238Y-110695619D01*
X136168190Y-110598857D02*
X136119809Y-110647238D01*
X136168190Y-110695619D01*
X136216571Y-110647238D01*
X136168190Y-110598857D01*
X136168190Y-110695619D01*
X135684380Y-110018286D02*
X135684380Y-110695619D01*
X135684380Y-110115048D02*
X135635999Y-110066667D01*
X135539237Y-110018286D01*
X135394095Y-110018286D01*
X135297333Y-110066667D01*
X135248952Y-110163429D01*
X135248952Y-110695619D01*
X134378095Y-110647238D02*
X134474857Y-110695619D01*
X134668380Y-110695619D01*
X134765142Y-110647238D01*
X134813523Y-110550476D01*
X134813523Y-110163429D01*
X134765142Y-110066667D01*
X134668380Y-110018286D01*
X134474857Y-110018286D01*
X134378095Y-110066667D01*
X134329714Y-110163429D01*
X134329714Y-110260190D01*
X134813523Y-110356952D01*
X134039428Y-110018286D02*
X133652380Y-110018286D01*
X133894285Y-109679619D02*
X133894285Y-110550476D01*
X133845904Y-110647238D01*
X133749142Y-110695619D01*
X133652380Y-110695619D01*
D12*
X143663142Y-86530571D02*
X143663142Y-85030571D01*
X143091714Y-85030571D01*
X142948856Y-85102000D01*
X142877428Y-85173429D01*
X142805999Y-85316286D01*
X142805999Y-85530571D01*
X142877428Y-85673429D01*
X142948856Y-85744857D01*
X143091714Y-85816286D01*
X143663142Y-85816286D01*
X141948856Y-86530571D02*
X142091714Y-86459143D01*
X142163142Y-86387714D01*
X142234571Y-86244857D01*
X142234571Y-85816286D01*
X142163142Y-85673429D01*
X142091714Y-85602000D01*
X141948856Y-85530571D01*
X141734571Y-85530571D01*
X141591714Y-85602000D01*
X141520285Y-85673429D01*
X141448856Y-85816286D01*
X141448856Y-86244857D01*
X141520285Y-86387714D01*
X141591714Y-86459143D01*
X141734571Y-86530571D01*
X141948856Y-86530571D01*
X140948856Y-85530571D02*
X140663142Y-86530571D01*
X140377428Y-85816286D01*
X140091713Y-86530571D01*
X139805999Y-85530571D01*
X138663142Y-86459143D02*
X138805999Y-86530571D01*
X139091713Y-86530571D01*
X139234570Y-86459143D01*
X139305999Y-86316286D01*
X139305999Y-85744857D01*
X139234570Y-85602000D01*
X139091713Y-85530571D01*
X138805999Y-85530571D01*
X138663142Y-85602000D01*
X138591713Y-85744857D01*
X138591713Y-85887714D01*
X139305999Y-86030571D01*
X137948856Y-86530571D02*
X137948856Y-85530571D01*
X137948856Y-85816286D02*
X137877428Y-85673429D01*
X137805999Y-85602000D01*
X137663142Y-85530571D01*
X137520285Y-85530571D01*
X135877428Y-86530571D02*
X135877428Y-85030571D01*
X135163142Y-85530571D02*
X135163142Y-86530571D01*
X135163142Y-85673429D02*
X135091714Y-85602000D01*
X134948856Y-85530571D01*
X134734571Y-85530571D01*
X134591714Y-85602000D01*
X134520285Y-85744857D01*
X134520285Y-86530571D01*
X133805999Y-85530571D02*
X133805999Y-87030571D01*
X133805999Y-85602000D02*
X133663142Y-85530571D01*
X133377428Y-85530571D01*
X133234571Y-85602000D01*
X133163142Y-85673429D01*
X133091713Y-85816286D01*
X133091713Y-86244857D01*
X133163142Y-86387714D01*
X133234571Y-86459143D01*
X133377428Y-86530571D01*
X133663142Y-86530571D01*
X133805999Y-86459143D01*
X131805999Y-85530571D02*
X131805999Y-86530571D01*
X132448856Y-85530571D02*
X132448856Y-86316286D01*
X132377428Y-86459143D01*
X132234570Y-86530571D01*
X132020285Y-86530571D01*
X131877428Y-86459143D01*
X131805999Y-86387714D01*
X131305999Y-85530571D02*
X130734570Y-85530571D01*
X131091713Y-85030571D02*
X131091713Y-86316286D01*
X131020285Y-86459143D01*
X130877427Y-86530571D01*
X130734570Y-86530571D01*
X128591713Y-85744857D02*
X128377427Y-85816286D01*
X128305999Y-85887714D01*
X128234570Y-86030571D01*
X128234570Y-86244857D01*
X128305999Y-86387714D01*
X128377427Y-86459143D01*
X128520285Y-86530571D01*
X129091713Y-86530571D01*
X129091713Y-85030571D01*
X128591713Y-85030571D01*
X128448856Y-85102000D01*
X128377427Y-85173429D01*
X128305999Y-85316286D01*
X128305999Y-85459143D01*
X128377427Y-85602000D01*
X128448856Y-85673429D01*
X128591713Y-85744857D01*
X129091713Y-85744857D01*
X127377427Y-86530571D02*
X127520285Y-86459143D01*
X127591713Y-86387714D01*
X127663142Y-86244857D01*
X127663142Y-85816286D01*
X127591713Y-85673429D01*
X127520285Y-85602000D01*
X127377427Y-85530571D01*
X127163142Y-85530571D01*
X127020285Y-85602000D01*
X126948856Y-85673429D01*
X126877427Y-85816286D01*
X126877427Y-86244857D01*
X126948856Y-86387714D01*
X127020285Y-86459143D01*
X127163142Y-86530571D01*
X127377427Y-86530571D01*
X125591713Y-86530571D02*
X125591713Y-85744857D01*
X125663142Y-85602000D01*
X125805999Y-85530571D01*
X126091713Y-85530571D01*
X126234570Y-85602000D01*
X125591713Y-86459143D02*
X125734570Y-86530571D01*
X126091713Y-86530571D01*
X126234570Y-86459143D01*
X126305999Y-86316286D01*
X126305999Y-86173429D01*
X126234570Y-86030571D01*
X126091713Y-85959143D01*
X125734570Y-85959143D01*
X125591713Y-85887714D01*
X124877427Y-86530571D02*
X124877427Y-85530571D01*
X124877427Y-85816286D02*
X124805999Y-85673429D01*
X124734570Y-85602000D01*
X124591713Y-85530571D01*
X124448856Y-85530571D01*
X123305999Y-86530571D02*
X123305999Y-85030571D01*
X123305999Y-86459143D02*
X123448856Y-86530571D01*
X123734570Y-86530571D01*
X123877428Y-86459143D01*
X123948856Y-86387714D01*
X124020285Y-86244857D01*
X124020285Y-85816286D01*
X123948856Y-85673429D01*
X123877428Y-85602000D01*
X123734570Y-85530571D01*
X123448856Y-85530571D01*
X123305999Y-85602000D01*
X121591713Y-85530571D02*
X121234570Y-86530571D01*
X120877428Y-85530571D01*
X119520285Y-86530571D02*
X120377428Y-86530571D01*
X119948856Y-86530571D02*
X119948856Y-85030571D01*
X120091713Y-85244857D01*
X120234571Y-85387714D01*
X120377428Y-85459143D01*
X118877428Y-86387714D02*
X118806000Y-86459143D01*
X118877428Y-86530571D01*
X118948857Y-86459143D01*
X118877428Y-86387714D01*
X118877428Y-86530571D01*
X117377428Y-86530571D02*
X118234571Y-86530571D01*
X117805999Y-86530571D02*
X117805999Y-85030571D01*
X117948856Y-85244857D01*
X118091714Y-85387714D01*
X118234571Y-85459143D01*
M02*
