G04 #@! TF.FileFunction,Soldermask,Top*
%FSLAX46Y46*%
G04 Gerber Fmt 4.6, Leading zero omitted, Abs format (unit mm)*
G04 Created by KiCad (PCBNEW 4.0.1-3.201512221402+6198~38~ubuntu14.04.1-stable) date Sat 30 Jul 2016 07:40:51 PM PDT*
%MOMM*%
G01*
G04 APERTURE LIST*
%ADD10C,0.100000*%
G04 APERTURE END LIST*
D10*
G36*
X132363080Y-105922317D02*
X132363090Y-105922320D01*
X132363117Y-105922323D01*
X132566745Y-105985356D01*
X132754250Y-106086740D01*
X132918493Y-106222614D01*
X133053217Y-106387801D01*
X133153289Y-106576010D01*
X133214899Y-106780072D01*
X133235700Y-106992215D01*
X133235700Y-107002785D01*
X133235594Y-107018034D01*
X133211833Y-107229866D01*
X133147380Y-107433048D01*
X133044689Y-107619842D01*
X132907672Y-107783132D01*
X132741549Y-107916699D01*
X132552645Y-108015455D01*
X132348158Y-108075639D01*
X132348130Y-108075642D01*
X132348122Y-108075644D01*
X132135876Y-108094959D01*
X131923920Y-108072683D01*
X131923910Y-108072680D01*
X131923883Y-108072677D01*
X131720255Y-108009644D01*
X131532750Y-107908260D01*
X131368507Y-107772386D01*
X131233783Y-107607199D01*
X131133711Y-107418990D01*
X131072101Y-107214928D01*
X131051300Y-107002785D01*
X131051300Y-106992215D01*
X131051406Y-106976966D01*
X131075167Y-106765134D01*
X131139620Y-106561952D01*
X131242311Y-106375158D01*
X131379328Y-106211868D01*
X131545451Y-106078301D01*
X131734355Y-105979545D01*
X131938842Y-105919361D01*
X131938870Y-105919358D01*
X131938878Y-105919356D01*
X132151124Y-105900041D01*
X132363080Y-105922317D01*
X132363080Y-105922317D01*
G37*
G36*
X135775700Y-108089700D02*
X133591300Y-108089700D01*
X133591300Y-105905300D01*
X135775700Y-105905300D01*
X135775700Y-108089700D01*
X135775700Y-108089700D01*
G37*
G36*
X124743080Y-105795317D02*
X124743090Y-105795320D01*
X124743117Y-105795323D01*
X124946745Y-105858356D01*
X125134250Y-105959740D01*
X125298493Y-106095614D01*
X125433217Y-106260801D01*
X125533289Y-106449010D01*
X125594899Y-106653072D01*
X125615700Y-106865215D01*
X125615700Y-106875785D01*
X125615594Y-106891034D01*
X125591833Y-107102866D01*
X125527380Y-107306048D01*
X125424689Y-107492842D01*
X125287672Y-107656132D01*
X125121549Y-107789699D01*
X124932645Y-107888455D01*
X124728158Y-107948639D01*
X124728130Y-107948642D01*
X124728122Y-107948644D01*
X124515876Y-107967959D01*
X124303920Y-107945683D01*
X124303910Y-107945680D01*
X124303883Y-107945677D01*
X124100255Y-107882644D01*
X123912750Y-107781260D01*
X123748507Y-107645386D01*
X123613783Y-107480199D01*
X123513711Y-107291990D01*
X123452101Y-107087928D01*
X123431300Y-106875785D01*
X123431300Y-106865215D01*
X123431406Y-106849966D01*
X123455167Y-106638134D01*
X123519620Y-106434952D01*
X123622311Y-106248158D01*
X123759328Y-106084868D01*
X123925451Y-105951301D01*
X124114355Y-105852545D01*
X124318842Y-105792361D01*
X124318870Y-105792358D01*
X124318878Y-105792356D01*
X124531124Y-105773041D01*
X124743080Y-105795317D01*
X124743080Y-105795317D01*
G37*
G36*
X139983080Y-105795317D02*
X139983090Y-105795320D01*
X139983117Y-105795323D01*
X140186745Y-105858356D01*
X140374250Y-105959740D01*
X140538493Y-106095614D01*
X140673217Y-106260801D01*
X140773289Y-106449010D01*
X140834899Y-106653072D01*
X140855700Y-106865215D01*
X140855700Y-106875785D01*
X140855594Y-106891034D01*
X140831833Y-107102866D01*
X140767380Y-107306048D01*
X140664689Y-107492842D01*
X140527672Y-107656132D01*
X140361549Y-107789699D01*
X140172645Y-107888455D01*
X139968158Y-107948639D01*
X139968130Y-107948642D01*
X139968122Y-107948644D01*
X139755876Y-107967959D01*
X139543920Y-107945683D01*
X139543910Y-107945680D01*
X139543883Y-107945677D01*
X139340255Y-107882644D01*
X139152750Y-107781260D01*
X138988507Y-107645386D01*
X138853783Y-107480199D01*
X138753711Y-107291990D01*
X138692101Y-107087928D01*
X138671300Y-106875785D01*
X138671300Y-106865215D01*
X138671406Y-106849966D01*
X138695167Y-106638134D01*
X138759620Y-106434952D01*
X138862311Y-106248158D01*
X138999328Y-106084868D01*
X139165451Y-105951301D01*
X139354355Y-105852545D01*
X139558842Y-105792361D01*
X139558870Y-105792358D01*
X139558878Y-105792356D01*
X139771124Y-105773041D01*
X139983080Y-105795317D01*
X139983080Y-105795317D01*
G37*
G36*
X128155700Y-107962700D02*
X125971300Y-107962700D01*
X125971300Y-105778300D01*
X128155700Y-105778300D01*
X128155700Y-107962700D01*
X128155700Y-107962700D01*
G37*
G36*
X143395700Y-107962700D02*
X141211300Y-107962700D01*
X141211300Y-105778300D01*
X143395700Y-105778300D01*
X143395700Y-107962700D01*
X143395700Y-107962700D01*
G37*
G36*
X132363080Y-100651817D02*
X132363090Y-100651820D01*
X132363117Y-100651823D01*
X132566745Y-100714856D01*
X132754250Y-100816240D01*
X132918493Y-100952114D01*
X133053217Y-101117301D01*
X133153289Y-101305510D01*
X133214899Y-101509572D01*
X133235700Y-101721715D01*
X133235700Y-101732285D01*
X133235594Y-101747534D01*
X133211833Y-101959366D01*
X133147380Y-102162548D01*
X133044689Y-102349342D01*
X132907672Y-102512632D01*
X132741549Y-102646199D01*
X132552645Y-102744955D01*
X132348158Y-102805139D01*
X132348130Y-102805142D01*
X132348122Y-102805144D01*
X132135876Y-102824459D01*
X131923920Y-102802183D01*
X131923910Y-102802180D01*
X131923883Y-102802177D01*
X131720255Y-102739144D01*
X131532750Y-102637760D01*
X131368507Y-102501886D01*
X131233783Y-102336699D01*
X131133711Y-102148490D01*
X131072101Y-101944428D01*
X131051300Y-101732285D01*
X131051300Y-101721715D01*
X131051406Y-101706466D01*
X131075167Y-101494634D01*
X131139620Y-101291452D01*
X131242311Y-101104658D01*
X131379328Y-100941368D01*
X131545451Y-100807801D01*
X131734355Y-100709045D01*
X131938842Y-100648861D01*
X131938870Y-100648858D01*
X131938878Y-100648856D01*
X132151124Y-100629541D01*
X132363080Y-100651817D01*
X132363080Y-100651817D01*
G37*
G36*
X135775700Y-102819200D02*
X133591300Y-102819200D01*
X133591300Y-100634800D01*
X135775700Y-100634800D01*
X135775700Y-102819200D01*
X135775700Y-102819200D01*
G37*
G36*
X139983080Y-100588317D02*
X139983090Y-100588320D01*
X139983117Y-100588323D01*
X140186745Y-100651356D01*
X140374250Y-100752740D01*
X140538493Y-100888614D01*
X140673217Y-101053801D01*
X140773289Y-101242010D01*
X140834899Y-101446072D01*
X140855700Y-101658215D01*
X140855700Y-101668785D01*
X140855594Y-101684034D01*
X140831833Y-101895866D01*
X140767380Y-102099048D01*
X140664689Y-102285842D01*
X140527672Y-102449132D01*
X140361549Y-102582699D01*
X140172645Y-102681455D01*
X139968158Y-102741639D01*
X139968130Y-102741642D01*
X139968122Y-102741644D01*
X139755876Y-102760959D01*
X139543920Y-102738683D01*
X139543910Y-102738680D01*
X139543883Y-102738677D01*
X139340255Y-102675644D01*
X139152750Y-102574260D01*
X138988507Y-102438386D01*
X138853783Y-102273199D01*
X138753711Y-102084990D01*
X138692101Y-101880928D01*
X138671300Y-101668785D01*
X138671300Y-101658215D01*
X138671406Y-101642966D01*
X138695167Y-101431134D01*
X138759620Y-101227952D01*
X138862311Y-101041158D01*
X138999328Y-100877868D01*
X139165451Y-100744301D01*
X139354355Y-100645545D01*
X139558842Y-100585361D01*
X139558870Y-100585358D01*
X139558878Y-100585356D01*
X139771124Y-100566041D01*
X139983080Y-100588317D01*
X139983080Y-100588317D01*
G37*
G36*
X124743080Y-100588317D02*
X124743090Y-100588320D01*
X124743117Y-100588323D01*
X124946745Y-100651356D01*
X125134250Y-100752740D01*
X125298493Y-100888614D01*
X125433217Y-101053801D01*
X125533289Y-101242010D01*
X125594899Y-101446072D01*
X125615700Y-101658215D01*
X125615700Y-101668785D01*
X125615594Y-101684034D01*
X125591833Y-101895866D01*
X125527380Y-102099048D01*
X125424689Y-102285842D01*
X125287672Y-102449132D01*
X125121549Y-102582699D01*
X124932645Y-102681455D01*
X124728158Y-102741639D01*
X124728130Y-102741642D01*
X124728122Y-102741644D01*
X124515876Y-102760959D01*
X124303920Y-102738683D01*
X124303910Y-102738680D01*
X124303883Y-102738677D01*
X124100255Y-102675644D01*
X123912750Y-102574260D01*
X123748507Y-102438386D01*
X123613783Y-102273199D01*
X123513711Y-102084990D01*
X123452101Y-101880928D01*
X123431300Y-101668785D01*
X123431300Y-101658215D01*
X123431406Y-101642966D01*
X123455167Y-101431134D01*
X123519620Y-101227952D01*
X123622311Y-101041158D01*
X123759328Y-100877868D01*
X123925451Y-100744301D01*
X124114355Y-100645545D01*
X124318842Y-100585361D01*
X124318870Y-100585358D01*
X124318878Y-100585356D01*
X124531124Y-100566041D01*
X124743080Y-100588317D01*
X124743080Y-100588317D01*
G37*
G36*
X128155700Y-102755700D02*
X125971300Y-102755700D01*
X125971300Y-100571300D01*
X128155700Y-100571300D01*
X128155700Y-102755700D01*
X128155700Y-102755700D01*
G37*
G36*
X143395700Y-102755700D02*
X141211300Y-102755700D01*
X141211300Y-100571300D01*
X143395700Y-100571300D01*
X143395700Y-102755700D01*
X143395700Y-102755700D01*
G37*
G36*
X115534071Y-96581321D02*
X115932922Y-96663193D01*
X116308271Y-96820976D01*
X116645820Y-97048656D01*
X116932729Y-97337575D01*
X117158047Y-97676705D01*
X117313206Y-98053149D01*
X117392238Y-98452293D01*
X117392238Y-98452300D01*
X117392289Y-98452558D01*
X117385795Y-98917616D01*
X117385737Y-98917871D01*
X117385737Y-98917878D01*
X117295591Y-99314661D01*
X117129981Y-99686626D01*
X116895279Y-100019338D01*
X116600424Y-100300124D01*
X116256644Y-100518293D01*
X115877030Y-100665536D01*
X115476058Y-100736238D01*
X115068976Y-100727711D01*
X114671313Y-100640279D01*
X114298207Y-100477273D01*
X113963861Y-100244896D01*
X113681024Y-99952010D01*
X113460456Y-99609756D01*
X113310571Y-99231189D01*
X113237069Y-98830711D01*
X113242754Y-98423587D01*
X113327408Y-98025323D01*
X113487807Y-97651083D01*
X113717843Y-97315124D01*
X114008747Y-97030250D01*
X114349449Y-96807301D01*
X114726969Y-96654773D01*
X115126917Y-96578479D01*
X115534071Y-96581321D01*
X115534071Y-96581321D01*
G37*
G36*
X110835071Y-93581581D02*
X111233922Y-93663453D01*
X111609271Y-93821236D01*
X111946820Y-94048916D01*
X112233729Y-94337835D01*
X112459047Y-94676965D01*
X112614206Y-95053409D01*
X112693238Y-95452553D01*
X112693238Y-95452560D01*
X112693289Y-95452818D01*
X112686795Y-95917876D01*
X112686737Y-95918131D01*
X112686737Y-95918138D01*
X112596591Y-96314921D01*
X112430981Y-96686886D01*
X112196279Y-97019598D01*
X111901424Y-97300384D01*
X111557644Y-97518553D01*
X111178030Y-97665796D01*
X110777058Y-97736498D01*
X110369976Y-97727971D01*
X109972313Y-97640539D01*
X109599207Y-97477533D01*
X109264861Y-97245156D01*
X108982024Y-96952270D01*
X108761456Y-96610016D01*
X108611571Y-96231449D01*
X108538069Y-95830971D01*
X108543754Y-95423847D01*
X108628408Y-95025583D01*
X108788807Y-94651343D01*
X109018843Y-94315384D01*
X109309747Y-94030510D01*
X109650449Y-93807561D01*
X110027969Y-93655033D01*
X110427917Y-93578739D01*
X110835071Y-93581581D01*
X110835071Y-93581581D01*
G37*
G36*
X140276200Y-97338200D02*
X139123800Y-97338200D01*
X139123800Y-94685800D01*
X140276200Y-94685800D01*
X140276200Y-97338200D01*
X140276200Y-97338200D01*
G37*
G36*
X143276200Y-97338200D02*
X142123800Y-97338200D01*
X142123800Y-94685800D01*
X143276200Y-94685800D01*
X143276200Y-97338200D01*
X143276200Y-97338200D01*
G37*
G36*
X135704200Y-97338200D02*
X134551800Y-97338200D01*
X134551800Y-94685800D01*
X135704200Y-94685800D01*
X135704200Y-97338200D01*
X135704200Y-97338200D01*
G37*
G36*
X132704200Y-97338200D02*
X131551800Y-97338200D01*
X131551800Y-94685800D01*
X132704200Y-94685800D01*
X132704200Y-97338200D01*
X132704200Y-97338200D01*
G37*
G36*
X123060460Y-96596200D02*
X121257060Y-96596200D01*
X121257060Y-93395800D01*
X123060460Y-93395800D01*
X123060460Y-96596200D01*
X123060460Y-96596200D01*
G37*
G36*
X127662940Y-96596200D02*
X125859540Y-96596200D01*
X125859540Y-93395800D01*
X127662940Y-93395800D01*
X127662940Y-96596200D01*
X127662940Y-96596200D01*
G37*
G36*
X115534071Y-90581841D02*
X115932922Y-90663713D01*
X116308271Y-90821496D01*
X116645820Y-91049176D01*
X116932729Y-91338095D01*
X117158047Y-91677225D01*
X117313206Y-92053669D01*
X117392238Y-92452813D01*
X117392238Y-92452820D01*
X117392289Y-92453078D01*
X117385795Y-92918136D01*
X117385737Y-92918391D01*
X117385737Y-92918398D01*
X117295591Y-93315181D01*
X117129981Y-93687146D01*
X116895279Y-94019858D01*
X116600424Y-94300644D01*
X116256644Y-94518813D01*
X115877030Y-94666056D01*
X115476058Y-94736758D01*
X115068976Y-94728231D01*
X114671313Y-94640799D01*
X114298207Y-94477793D01*
X113963861Y-94245416D01*
X113681024Y-93952530D01*
X113460456Y-93610276D01*
X113310571Y-93231709D01*
X113237069Y-92831231D01*
X113242754Y-92424107D01*
X113327408Y-92025843D01*
X113487807Y-91651603D01*
X113717843Y-91315644D01*
X114008747Y-91030770D01*
X114349449Y-90807821D01*
X114726969Y-90655293D01*
X115126917Y-90578999D01*
X115534071Y-90581841D01*
X115534071Y-90581841D01*
G37*
G36*
X143126460Y-91818460D02*
X136273540Y-91818460D01*
X136273540Y-84965540D01*
X143126460Y-84965540D01*
X143126460Y-91818460D01*
X143126460Y-91818460D01*
G37*
G36*
X127886460Y-91772740D02*
X121033540Y-91772740D01*
X121033540Y-84919820D01*
X127886460Y-84919820D01*
X127886460Y-91772740D01*
X127886460Y-91772740D01*
G37*
G36*
X134650480Y-91594940D02*
X131450080Y-91594940D01*
X131450080Y-89791540D01*
X134650480Y-89791540D01*
X134650480Y-91594940D01*
X134650480Y-91594940D01*
G37*
G36*
X134650480Y-86992460D02*
X131450080Y-86992460D01*
X131450080Y-85189060D01*
X134650480Y-85189060D01*
X134650480Y-86992460D01*
X134650480Y-86992460D01*
G37*
M02*
