G04 #@! TF.FileFunction,Other,User*
%FSLAX46Y46*%
G04 Gerber Fmt 4.6, Leading zero omitted, Abs format (unit mm)*
G04 Created by KiCad (PCBNEW 4.0.1-3.201512221402+6198~38~ubuntu14.04.1-stable) date Sat 30 Jul 2016 07:40:51 PM PDT*
%MOMM*%
G01*
G04 APERTURE LIST*
%ADD10C,0.100000*%
%ADD11C,0.050000*%
G04 APERTURE END LIST*
D10*
D11*
X108316000Y-84706000D02*
X108316000Y-100956000D01*
X120066000Y-84706000D02*
X108316000Y-84706000D01*
X120066000Y-100956000D02*
X120066000Y-84706000D01*
X108316000Y-100956000D02*
X120066000Y-100956000D01*
X135928000Y-97612000D02*
X131328000Y-97612000D01*
X135928000Y-94412000D02*
X131328000Y-94412000D01*
X135928000Y-97612000D02*
X135928000Y-94412000D01*
X131328000Y-97612000D02*
X131328000Y-94412000D01*
X136433500Y-98427000D02*
X130383500Y-98427000D01*
X136433500Y-105027000D02*
X130383500Y-105027000D01*
X136433500Y-98427000D02*
X136425940Y-105027000D01*
X130383500Y-98427000D02*
X130383500Y-105027000D01*
X136433500Y-105247500D02*
X130383500Y-105247500D01*
X136433500Y-108747500D02*
X130383500Y-108747500D01*
X136433500Y-105247500D02*
X136433500Y-108747500D01*
X130383500Y-105247500D02*
X130383500Y-108747500D01*
X144053500Y-98363500D02*
X138003500Y-98363500D01*
X144053500Y-104963500D02*
X138003500Y-104963500D01*
X144053500Y-98363500D02*
X144045940Y-104963500D01*
X138003500Y-98363500D02*
X138003500Y-104963500D01*
X128813500Y-98363500D02*
X122763500Y-98363500D01*
X128813500Y-104963500D02*
X122763500Y-104963500D01*
X128813500Y-98363500D02*
X128805940Y-104963500D01*
X122763500Y-98363500D02*
X122763500Y-104963500D01*
X144053500Y-105120500D02*
X138003500Y-105120500D01*
X144053500Y-108620500D02*
X138003500Y-108620500D01*
X144053500Y-105120500D02*
X144053500Y-108620500D01*
X138003500Y-105120500D02*
X138003500Y-108620500D01*
X128813500Y-105120500D02*
X122763500Y-105120500D01*
X128813500Y-108620500D02*
X122763500Y-108620500D01*
X128813500Y-105120500D02*
X128813500Y-108620500D01*
X122763500Y-105120500D02*
X122763500Y-108620500D01*
X120396000Y-84328000D02*
X128524000Y-84328000D01*
X120396000Y-97028000D02*
X120396000Y-84328000D01*
X128524000Y-97028000D02*
X120396000Y-97028000D01*
X128524000Y-84328000D02*
X128524000Y-97028000D01*
X143718280Y-84328000D02*
X143718280Y-92456000D01*
X131018280Y-84328000D02*
X143718280Y-84328000D01*
X131018280Y-92456000D02*
X131018280Y-84328000D01*
X143718280Y-92456000D02*
X131018280Y-92456000D01*
X143500000Y-97612000D02*
X138900000Y-97612000D01*
X143500000Y-94412000D02*
X138900000Y-94412000D01*
X143500000Y-97612000D02*
X143500000Y-94412000D01*
X138900000Y-97612000D02*
X138900000Y-94412000D01*
M02*
