G04 #@! TF.FileFunction,Copper,L1,Top,Signal*
%FSLAX46Y46*%
G04 Gerber Fmt 4.6, Leading zero omitted, Abs format (unit mm)*
G04 Created by KiCad (PCBNEW 4.0.1-3.201512221402+6198~38~ubuntu14.04.1-stable) date Sat 30 Jul 2016 07:40:51 PM PDT*
%MOMM*%
G01*
G04 APERTURE LIST*
%ADD10C,0.100000*%
%ADD11C,4.000000*%
%ADD12R,1.000000X2.500000*%
%ADD13R,2.032000X2.032000*%
%ADD14O,2.032000X2.032000*%
%ADD15R,1.651000X3.048000*%
%ADD16R,6.700520X6.700520*%
%ADD17R,3.048000X1.651000*%
%ADD18C,0.762000*%
%ADD19C,0.254000*%
G04 APERTURE END LIST*
D10*
D11*
X115316000Y-98656140D03*
X115316000Y-92656660D03*
X110617000Y-95656400D03*
D12*
X135128000Y-96012000D03*
X132128000Y-96012000D03*
D13*
X134683500Y-101727000D03*
D14*
X132143500Y-101727000D03*
D13*
X134683500Y-106997500D03*
D14*
X132143500Y-106997500D03*
D13*
X142303500Y-101663500D03*
D14*
X139763500Y-101663500D03*
D13*
X127063500Y-101663500D03*
D14*
X124523500Y-101663500D03*
D13*
X142303500Y-106870500D03*
D14*
X139763500Y-106870500D03*
D13*
X127063500Y-106870500D03*
D14*
X124523500Y-106870500D03*
D15*
X122158760Y-94996000D03*
D16*
X124460000Y-88346280D03*
D15*
X126761240Y-94996000D03*
D17*
X133050280Y-86090760D03*
D16*
X139700000Y-88392000D03*
D17*
X133050280Y-90693240D03*
D12*
X142700000Y-96012000D03*
X139700000Y-96012000D03*
D18*
X133050280Y-90693240D02*
X126806960Y-90693240D01*
X126806960Y-90693240D02*
X124460000Y-88346280D01*
X134683500Y-101727000D02*
X134683500Y-106997500D01*
X135128000Y-96012000D02*
X135128000Y-101282500D01*
X135128000Y-101282500D02*
X134683500Y-101727000D01*
X134600000Y-93472000D02*
X134241540Y-93472000D01*
X134241540Y-93472000D02*
X133050280Y-92280740D01*
X133050280Y-92280740D02*
X133050280Y-90693240D01*
X135128000Y-96012000D02*
X135128000Y-94000000D01*
X135128000Y-94000000D02*
X134600000Y-93472000D01*
X142700000Y-96012000D02*
X142700000Y-91392000D01*
X142700000Y-91392000D02*
X139700000Y-88392000D01*
X142700000Y-96012000D02*
X142700000Y-101267000D01*
X142700000Y-101267000D02*
X142303500Y-101663500D01*
X142303500Y-106870500D02*
X142303500Y-101663500D01*
X127063500Y-101663500D02*
X127063500Y-100584000D01*
X126761240Y-94996000D02*
X126761240Y-100281740D01*
X126761240Y-100281740D02*
X127063500Y-100584000D01*
X127063500Y-103441500D02*
X127063500Y-104140000D01*
X127063500Y-106870500D02*
X127063500Y-104140000D01*
X126365000Y-104140000D02*
X127063500Y-104140000D01*
X118479433Y-104140000D02*
X126365000Y-104140000D01*
X127063500Y-103441500D02*
X127063500Y-101663500D01*
X115824000Y-98656140D02*
X115824000Y-101484567D01*
X115824000Y-101484567D02*
X118479433Y-104140000D01*
D19*
G36*
X145594000Y-111558000D02*
X108406000Y-111558000D01*
X108406000Y-107253446D01*
X122917517Y-107253446D01*
X123186312Y-107838879D01*
X123658682Y-108276885D01*
X124140556Y-108476475D01*
X124396500Y-108357336D01*
X124396500Y-106997500D01*
X123036133Y-106997500D01*
X122917517Y-107253446D01*
X108406000Y-107253446D01*
X108406000Y-106487554D01*
X122917517Y-106487554D01*
X123036133Y-106743500D01*
X124396500Y-106743500D01*
X124396500Y-105383664D01*
X124140556Y-105264525D01*
X123658682Y-105464115D01*
X123186312Y-105902121D01*
X122917517Y-106487554D01*
X108406000Y-106487554D01*
X108406000Y-99177974D01*
X112680543Y-99177974D01*
X113080853Y-100146798D01*
X113821443Y-100888682D01*
X114789567Y-101290682D01*
X114808000Y-101290698D01*
X114808000Y-101484567D01*
X114842062Y-101655807D01*
X114885338Y-101873374D01*
X115105580Y-102202987D01*
X117761012Y-104858420D01*
X117981254Y-105005581D01*
X118090627Y-105078662D01*
X118479433Y-105156000D01*
X126047500Y-105156000D01*
X126047500Y-105207060D01*
X125812183Y-105251338D01*
X125596059Y-105390410D01*
X125484660Y-105553448D01*
X125388318Y-105464115D01*
X124906444Y-105264525D01*
X124650500Y-105383664D01*
X124650500Y-106743500D01*
X124670500Y-106743500D01*
X124670500Y-106997500D01*
X124650500Y-106997500D01*
X124650500Y-108357336D01*
X124906444Y-108476475D01*
X125388318Y-108276885D01*
X125485898Y-108186403D01*
X125583410Y-108337941D01*
X125795610Y-108482931D01*
X126047500Y-108533940D01*
X128079500Y-108533940D01*
X128314817Y-108489662D01*
X128530941Y-108350590D01*
X128675931Y-108138390D01*
X128726940Y-107886500D01*
X128726940Y-107380446D01*
X130537517Y-107380446D01*
X130806312Y-107965879D01*
X131278682Y-108403885D01*
X131760556Y-108603475D01*
X132016500Y-108484336D01*
X132016500Y-107124500D01*
X130656133Y-107124500D01*
X130537517Y-107380446D01*
X128726940Y-107380446D01*
X128726940Y-106614554D01*
X130537517Y-106614554D01*
X130656133Y-106870500D01*
X132016500Y-106870500D01*
X132016500Y-105510664D01*
X131760556Y-105391525D01*
X131278682Y-105591115D01*
X130806312Y-106029121D01*
X130537517Y-106614554D01*
X128726940Y-106614554D01*
X128726940Y-105854500D01*
X128682662Y-105619183D01*
X128543590Y-105403059D01*
X128331390Y-105258069D01*
X128079500Y-105207060D01*
X128079500Y-103326940D01*
X128314817Y-103282662D01*
X128530941Y-103143590D01*
X128675931Y-102931390D01*
X128726940Y-102679500D01*
X128726940Y-102109946D01*
X130537517Y-102109946D01*
X130806312Y-102695379D01*
X131278682Y-103133385D01*
X131760556Y-103332975D01*
X132016500Y-103213836D01*
X132016500Y-101854000D01*
X130656133Y-101854000D01*
X130537517Y-102109946D01*
X128726940Y-102109946D01*
X128726940Y-101344054D01*
X130537517Y-101344054D01*
X130656133Y-101600000D01*
X132016500Y-101600000D01*
X132016500Y-100240164D01*
X131760556Y-100121025D01*
X131278682Y-100320615D01*
X130806312Y-100758621D01*
X130537517Y-101344054D01*
X128726940Y-101344054D01*
X128726940Y-100647500D01*
X128682662Y-100412183D01*
X128543590Y-100196059D01*
X128331390Y-100051069D01*
X128079500Y-100000060D01*
X127871777Y-100000060D01*
X127800197Y-99892933D01*
X127781920Y-99865579D01*
X127777240Y-99860899D01*
X127777240Y-97131595D01*
X127822057Y-97123162D01*
X128038181Y-96984090D01*
X128183171Y-96771890D01*
X128234180Y-96520000D01*
X128234180Y-96297750D01*
X130993000Y-96297750D01*
X130993000Y-97388310D01*
X131089673Y-97621699D01*
X131268302Y-97800327D01*
X131501691Y-97897000D01*
X131842250Y-97897000D01*
X132001000Y-97738250D01*
X132001000Y-96139000D01*
X132255000Y-96139000D01*
X132255000Y-97738250D01*
X132413750Y-97897000D01*
X132754309Y-97897000D01*
X132987698Y-97800327D01*
X133166327Y-97621699D01*
X133263000Y-97388310D01*
X133263000Y-96297750D01*
X133104250Y-96139000D01*
X132255000Y-96139000D01*
X132001000Y-96139000D01*
X131151750Y-96139000D01*
X130993000Y-96297750D01*
X128234180Y-96297750D01*
X128234180Y-94635690D01*
X130993000Y-94635690D01*
X130993000Y-95726250D01*
X131151750Y-95885000D01*
X132001000Y-95885000D01*
X132001000Y-94285750D01*
X132255000Y-94285750D01*
X132255000Y-95885000D01*
X133104250Y-95885000D01*
X133263000Y-95726250D01*
X133263000Y-94635690D01*
X133166327Y-94402301D01*
X132987698Y-94223673D01*
X132754309Y-94127000D01*
X132413750Y-94127000D01*
X132255000Y-94285750D01*
X132001000Y-94285750D01*
X131842250Y-94127000D01*
X131501691Y-94127000D01*
X131268302Y-94223673D01*
X131089673Y-94402301D01*
X130993000Y-94635690D01*
X128234180Y-94635690D01*
X128234180Y-93472000D01*
X128189902Y-93236683D01*
X128050830Y-93020559D01*
X127838630Y-92875569D01*
X127586740Y-92824560D01*
X125935740Y-92824560D01*
X125700423Y-92868838D01*
X125484299Y-93007910D01*
X125339309Y-93220110D01*
X125288300Y-93472000D01*
X125288300Y-96520000D01*
X125332578Y-96755317D01*
X125471650Y-96971441D01*
X125683850Y-97116431D01*
X125745240Y-97128863D01*
X125745240Y-100087415D01*
X125596059Y-100183410D01*
X125484660Y-100346448D01*
X125388318Y-100257115D01*
X124906444Y-100057525D01*
X124650500Y-100176664D01*
X124650500Y-101536500D01*
X124670500Y-101536500D01*
X124670500Y-101790500D01*
X124650500Y-101790500D01*
X124650500Y-101810500D01*
X124396500Y-101810500D01*
X124396500Y-101790500D01*
X123036133Y-101790500D01*
X122917517Y-102046446D01*
X123186312Y-102631879D01*
X123658682Y-103069885D01*
X123789333Y-103124000D01*
X118900274Y-103124000D01*
X117056828Y-101280554D01*
X122917517Y-101280554D01*
X123036133Y-101536500D01*
X124396500Y-101536500D01*
X124396500Y-100176664D01*
X124140556Y-100057525D01*
X123658682Y-100257115D01*
X123186312Y-100695121D01*
X122917517Y-101280554D01*
X117056828Y-101280554D01*
X116840000Y-101063727D01*
X116840000Y-100858003D01*
X117548542Y-100150697D01*
X117950542Y-99182573D01*
X117951457Y-98134306D01*
X117551147Y-97165482D01*
X116810557Y-96423598D01*
X115842433Y-96021598D01*
X114794166Y-96020683D01*
X113825342Y-96420993D01*
X113083458Y-97161583D01*
X112681458Y-98129707D01*
X112680543Y-99177974D01*
X108406000Y-99177974D01*
X108406000Y-97531422D01*
X108921584Y-97531422D01*
X109142353Y-97902143D01*
X110114012Y-98295519D01*
X111162247Y-98287113D01*
X112091647Y-97902143D01*
X112312416Y-97531422D01*
X110617000Y-95836005D01*
X108921584Y-97531422D01*
X108406000Y-97531422D01*
X108406000Y-97151737D01*
X108741978Y-97351816D01*
X110437395Y-95656400D01*
X110796605Y-95656400D01*
X112492022Y-97351816D01*
X112862743Y-97131047D01*
X113256119Y-96159388D01*
X113247713Y-95111153D01*
X113007689Y-94531682D01*
X113620584Y-94531682D01*
X113841353Y-94902403D01*
X114813012Y-95295779D01*
X115861247Y-95287373D01*
X115874822Y-95281750D01*
X120698260Y-95281750D01*
X120698260Y-96646310D01*
X120794933Y-96879699D01*
X120973562Y-97058327D01*
X121206951Y-97155000D01*
X121873010Y-97155000D01*
X122031760Y-96996250D01*
X122031760Y-95123000D01*
X122285760Y-95123000D01*
X122285760Y-96996250D01*
X122444510Y-97155000D01*
X123110569Y-97155000D01*
X123343958Y-97058327D01*
X123522587Y-96879699D01*
X123619260Y-96646310D01*
X123619260Y-95281750D01*
X123460510Y-95123000D01*
X122285760Y-95123000D01*
X122031760Y-95123000D01*
X120857010Y-95123000D01*
X120698260Y-95281750D01*
X115874822Y-95281750D01*
X116790647Y-94902403D01*
X117011416Y-94531682D01*
X115316000Y-92836265D01*
X113620584Y-94531682D01*
X113007689Y-94531682D01*
X112862743Y-94181753D01*
X112492022Y-93960984D01*
X110796605Y-95656400D01*
X110437395Y-95656400D01*
X108741978Y-93960984D01*
X108406000Y-94161063D01*
X108406000Y-93781378D01*
X108921584Y-93781378D01*
X110617000Y-95476795D01*
X112312416Y-93781378D01*
X112091647Y-93410657D01*
X111119988Y-93017281D01*
X110071753Y-93025687D01*
X109142353Y-93410657D01*
X108921584Y-93781378D01*
X108406000Y-93781378D01*
X108406000Y-92153672D01*
X112676881Y-92153672D01*
X112685287Y-93201907D01*
X113070257Y-94131307D01*
X113440978Y-94352076D01*
X115136395Y-92656660D01*
X115495605Y-92656660D01*
X117191022Y-94352076D01*
X117561743Y-94131307D01*
X117879799Y-93345690D01*
X120698260Y-93345690D01*
X120698260Y-94710250D01*
X120857010Y-94869000D01*
X122031760Y-94869000D01*
X122031760Y-92995750D01*
X122285760Y-92995750D01*
X122285760Y-94869000D01*
X123460510Y-94869000D01*
X123619260Y-94710250D01*
X123619260Y-93345690D01*
X123522587Y-93112301D01*
X123343958Y-92933673D01*
X123110569Y-92837000D01*
X122444510Y-92837000D01*
X122285760Y-92995750D01*
X122031760Y-92995750D01*
X121873010Y-92837000D01*
X121206951Y-92837000D01*
X120973562Y-92933673D01*
X120794933Y-93112301D01*
X120698260Y-93345690D01*
X117879799Y-93345690D01*
X117955119Y-93159648D01*
X117946713Y-92111413D01*
X117561743Y-91182013D01*
X117191022Y-90961244D01*
X115495605Y-92656660D01*
X115136395Y-92656660D01*
X113440978Y-90961244D01*
X113070257Y-91182013D01*
X112676881Y-92153672D01*
X108406000Y-92153672D01*
X108406000Y-90781638D01*
X113620584Y-90781638D01*
X115316000Y-92477055D01*
X117011416Y-90781638D01*
X116790647Y-90410917D01*
X115818988Y-90017541D01*
X114770753Y-90025947D01*
X113841353Y-90410917D01*
X113620584Y-90781638D01*
X108406000Y-90781638D01*
X108406000Y-84996020D01*
X120462300Y-84996020D01*
X120462300Y-91696540D01*
X120506578Y-91931857D01*
X120645650Y-92147981D01*
X120857850Y-92292971D01*
X121109740Y-92343980D01*
X127810260Y-92343980D01*
X128045577Y-92299702D01*
X128261701Y-92160630D01*
X128406691Y-91948430D01*
X128455128Y-91709240D01*
X130914685Y-91709240D01*
X130923118Y-91754057D01*
X131062190Y-91970181D01*
X131274390Y-92115171D01*
X131526280Y-92166180D01*
X132034280Y-92166180D01*
X132034280Y-92280740D01*
X132084525Y-92533338D01*
X132111618Y-92669547D01*
X132331860Y-92999160D01*
X133523119Y-94190420D01*
X133852733Y-94410662D01*
X133917240Y-94423493D01*
X134069991Y-94453877D01*
X134031569Y-94510110D01*
X133980560Y-94762000D01*
X133980560Y-97262000D01*
X134024838Y-97497317D01*
X134112000Y-97632771D01*
X134112000Y-100063560D01*
X133667500Y-100063560D01*
X133432183Y-100107838D01*
X133216059Y-100246910D01*
X133104660Y-100409948D01*
X133008318Y-100320615D01*
X132526444Y-100121025D01*
X132270500Y-100240164D01*
X132270500Y-101600000D01*
X132290500Y-101600000D01*
X132290500Y-101854000D01*
X132270500Y-101854000D01*
X132270500Y-103213836D01*
X132526444Y-103332975D01*
X133008318Y-103133385D01*
X133105898Y-103042903D01*
X133203410Y-103194441D01*
X133415610Y-103339431D01*
X133667500Y-103390440D01*
X133667500Y-105334060D01*
X133432183Y-105378338D01*
X133216059Y-105517410D01*
X133104660Y-105680448D01*
X133008318Y-105591115D01*
X132526444Y-105391525D01*
X132270500Y-105510664D01*
X132270500Y-106870500D01*
X132290500Y-106870500D01*
X132290500Y-107124500D01*
X132270500Y-107124500D01*
X132270500Y-108484336D01*
X132526444Y-108603475D01*
X133008318Y-108403885D01*
X133105898Y-108313403D01*
X133203410Y-108464941D01*
X133415610Y-108609931D01*
X133667500Y-108660940D01*
X135699500Y-108660940D01*
X135934817Y-108616662D01*
X136150941Y-108477590D01*
X136295931Y-108265390D01*
X136346940Y-108013500D01*
X136346940Y-107253446D01*
X138157517Y-107253446D01*
X138426312Y-107838879D01*
X138898682Y-108276885D01*
X139380556Y-108476475D01*
X139636500Y-108357336D01*
X139636500Y-106997500D01*
X138276133Y-106997500D01*
X138157517Y-107253446D01*
X136346940Y-107253446D01*
X136346940Y-106487554D01*
X138157517Y-106487554D01*
X138276133Y-106743500D01*
X139636500Y-106743500D01*
X139636500Y-105383664D01*
X139380556Y-105264525D01*
X138898682Y-105464115D01*
X138426312Y-105902121D01*
X138157517Y-106487554D01*
X136346940Y-106487554D01*
X136346940Y-105981500D01*
X136302662Y-105746183D01*
X136163590Y-105530059D01*
X135951390Y-105385069D01*
X135699500Y-105334060D01*
X135699500Y-103390440D01*
X135934817Y-103346162D01*
X136150941Y-103207090D01*
X136295931Y-102994890D01*
X136346940Y-102743000D01*
X136346940Y-102046446D01*
X138157517Y-102046446D01*
X138426312Y-102631879D01*
X138898682Y-103069885D01*
X139380556Y-103269475D01*
X139636500Y-103150336D01*
X139636500Y-101790500D01*
X138276133Y-101790500D01*
X138157517Y-102046446D01*
X136346940Y-102046446D01*
X136346940Y-101280554D01*
X138157517Y-101280554D01*
X138276133Y-101536500D01*
X139636500Y-101536500D01*
X139636500Y-100176664D01*
X139380556Y-100057525D01*
X138898682Y-100257115D01*
X138426312Y-100695121D01*
X138157517Y-101280554D01*
X136346940Y-101280554D01*
X136346940Y-100711000D01*
X136302662Y-100475683D01*
X136163590Y-100259559D01*
X136144000Y-100246174D01*
X136144000Y-97631605D01*
X136224431Y-97513890D01*
X136275440Y-97262000D01*
X136275440Y-96297750D01*
X138565000Y-96297750D01*
X138565000Y-97388310D01*
X138661673Y-97621699D01*
X138840302Y-97800327D01*
X139073691Y-97897000D01*
X139414250Y-97897000D01*
X139573000Y-97738250D01*
X139573000Y-96139000D01*
X139827000Y-96139000D01*
X139827000Y-97738250D01*
X139985750Y-97897000D01*
X140326309Y-97897000D01*
X140559698Y-97800327D01*
X140738327Y-97621699D01*
X140835000Y-97388310D01*
X140835000Y-96297750D01*
X140676250Y-96139000D01*
X139827000Y-96139000D01*
X139573000Y-96139000D01*
X138723750Y-96139000D01*
X138565000Y-96297750D01*
X136275440Y-96297750D01*
X136275440Y-94762000D01*
X136251674Y-94635690D01*
X138565000Y-94635690D01*
X138565000Y-95726250D01*
X138723750Y-95885000D01*
X139573000Y-95885000D01*
X139573000Y-94285750D01*
X139827000Y-94285750D01*
X139827000Y-95885000D01*
X140676250Y-95885000D01*
X140835000Y-95726250D01*
X140835000Y-94635690D01*
X140738327Y-94402301D01*
X140559698Y-94223673D01*
X140326309Y-94127000D01*
X139985750Y-94127000D01*
X139827000Y-94285750D01*
X139573000Y-94285750D01*
X139414250Y-94127000D01*
X139073691Y-94127000D01*
X138840302Y-94223673D01*
X138661673Y-94402301D01*
X138565000Y-94635690D01*
X136251674Y-94635690D01*
X136231162Y-94526683D01*
X136144000Y-94391229D01*
X136144000Y-94000000D01*
X136066662Y-93611194D01*
X136066662Y-93611193D01*
X135846421Y-93281580D01*
X135318420Y-92753580D01*
X134988807Y-92533338D01*
X134924300Y-92520507D01*
X134677870Y-92471489D01*
X134372561Y-92166180D01*
X134574280Y-92166180D01*
X134809597Y-92121902D01*
X135025721Y-91982830D01*
X135170711Y-91770630D01*
X135221720Y-91518740D01*
X135221720Y-89867740D01*
X135177442Y-89632423D01*
X135038370Y-89416299D01*
X134826170Y-89271309D01*
X134574280Y-89220300D01*
X131526280Y-89220300D01*
X131290963Y-89264578D01*
X131074839Y-89403650D01*
X130929849Y-89615850D01*
X130917417Y-89677240D01*
X128457700Y-89677240D01*
X128457700Y-86376510D01*
X130891280Y-86376510D01*
X130891280Y-87042569D01*
X130987953Y-87275958D01*
X131166581Y-87454587D01*
X131399970Y-87551260D01*
X132764530Y-87551260D01*
X132923280Y-87392510D01*
X132923280Y-86217760D01*
X133177280Y-86217760D01*
X133177280Y-87392510D01*
X133336030Y-87551260D01*
X134700590Y-87551260D01*
X134933979Y-87454587D01*
X135112607Y-87275958D01*
X135209280Y-87042569D01*
X135209280Y-86376510D01*
X135050530Y-86217760D01*
X133177280Y-86217760D01*
X132923280Y-86217760D01*
X131050030Y-86217760D01*
X130891280Y-86376510D01*
X128457700Y-86376510D01*
X128457700Y-85138951D01*
X130891280Y-85138951D01*
X130891280Y-85805010D01*
X131050030Y-85963760D01*
X132923280Y-85963760D01*
X132923280Y-84789010D01*
X133177280Y-84789010D01*
X133177280Y-85963760D01*
X135050530Y-85963760D01*
X135209280Y-85805010D01*
X135209280Y-85138951D01*
X135169014Y-85041740D01*
X135702300Y-85041740D01*
X135702300Y-91742260D01*
X135746578Y-91977577D01*
X135885650Y-92193701D01*
X136097850Y-92338691D01*
X136349740Y-92389700D01*
X141684000Y-92389700D01*
X141684000Y-94392395D01*
X141603569Y-94510110D01*
X141552560Y-94762000D01*
X141552560Y-97262000D01*
X141596838Y-97497317D01*
X141684000Y-97632771D01*
X141684000Y-100000060D01*
X141287500Y-100000060D01*
X141052183Y-100044338D01*
X140836059Y-100183410D01*
X140724660Y-100346448D01*
X140628318Y-100257115D01*
X140146444Y-100057525D01*
X139890500Y-100176664D01*
X139890500Y-101536500D01*
X139910500Y-101536500D01*
X139910500Y-101790500D01*
X139890500Y-101790500D01*
X139890500Y-103150336D01*
X140146444Y-103269475D01*
X140628318Y-103069885D01*
X140725898Y-102979403D01*
X140823410Y-103130941D01*
X141035610Y-103275931D01*
X141287500Y-103326940D01*
X141287500Y-105207060D01*
X141052183Y-105251338D01*
X140836059Y-105390410D01*
X140724660Y-105553448D01*
X140628318Y-105464115D01*
X140146444Y-105264525D01*
X139890500Y-105383664D01*
X139890500Y-106743500D01*
X139910500Y-106743500D01*
X139910500Y-106997500D01*
X139890500Y-106997500D01*
X139890500Y-108357336D01*
X140146444Y-108476475D01*
X140628318Y-108276885D01*
X140725898Y-108186403D01*
X140823410Y-108337941D01*
X141035610Y-108482931D01*
X141287500Y-108533940D01*
X143319500Y-108533940D01*
X143554817Y-108489662D01*
X143770941Y-108350590D01*
X143915931Y-108138390D01*
X143966940Y-107886500D01*
X143966940Y-105854500D01*
X143922662Y-105619183D01*
X143783590Y-105403059D01*
X143571390Y-105258069D01*
X143319500Y-105207060D01*
X143319500Y-103326940D01*
X143554817Y-103282662D01*
X143770941Y-103143590D01*
X143915931Y-102931390D01*
X143966940Y-102679500D01*
X143966940Y-100647500D01*
X143922662Y-100412183D01*
X143783590Y-100196059D01*
X143716000Y-100149877D01*
X143716000Y-97631605D01*
X143796431Y-97513890D01*
X143847440Y-97262000D01*
X143847440Y-94762000D01*
X143803162Y-94526683D01*
X143716000Y-94391229D01*
X143716000Y-91392000D01*
X143697700Y-91299999D01*
X143697700Y-85041740D01*
X143653422Y-84806423D01*
X143514350Y-84590299D01*
X143302150Y-84445309D01*
X143050260Y-84394300D01*
X136349740Y-84394300D01*
X136114423Y-84438578D01*
X135898299Y-84577650D01*
X135753309Y-84789850D01*
X135702300Y-85041740D01*
X135169014Y-85041740D01*
X135112607Y-84905562D01*
X134933979Y-84726933D01*
X134700590Y-84630260D01*
X133336030Y-84630260D01*
X133177280Y-84789010D01*
X132923280Y-84789010D01*
X132764530Y-84630260D01*
X131399970Y-84630260D01*
X131166581Y-84726933D01*
X130987953Y-84905562D01*
X130891280Y-85138951D01*
X128457700Y-85138951D01*
X128457700Y-84996020D01*
X128413422Y-84760703D01*
X128274350Y-84544579D01*
X128062150Y-84399589D01*
X127810260Y-84348580D01*
X121109740Y-84348580D01*
X120874423Y-84392858D01*
X120658299Y-84531930D01*
X120513309Y-84744130D01*
X120462300Y-84996020D01*
X108406000Y-84996020D01*
X108406000Y-84022000D01*
X145594000Y-84022000D01*
X145594000Y-111558000D01*
X145594000Y-111558000D01*
G37*
X145594000Y-111558000D02*
X108406000Y-111558000D01*
X108406000Y-107253446D01*
X122917517Y-107253446D01*
X123186312Y-107838879D01*
X123658682Y-108276885D01*
X124140556Y-108476475D01*
X124396500Y-108357336D01*
X124396500Y-106997500D01*
X123036133Y-106997500D01*
X122917517Y-107253446D01*
X108406000Y-107253446D01*
X108406000Y-106487554D01*
X122917517Y-106487554D01*
X123036133Y-106743500D01*
X124396500Y-106743500D01*
X124396500Y-105383664D01*
X124140556Y-105264525D01*
X123658682Y-105464115D01*
X123186312Y-105902121D01*
X122917517Y-106487554D01*
X108406000Y-106487554D01*
X108406000Y-99177974D01*
X112680543Y-99177974D01*
X113080853Y-100146798D01*
X113821443Y-100888682D01*
X114789567Y-101290682D01*
X114808000Y-101290698D01*
X114808000Y-101484567D01*
X114842062Y-101655807D01*
X114885338Y-101873374D01*
X115105580Y-102202987D01*
X117761012Y-104858420D01*
X117981254Y-105005581D01*
X118090627Y-105078662D01*
X118479433Y-105156000D01*
X126047500Y-105156000D01*
X126047500Y-105207060D01*
X125812183Y-105251338D01*
X125596059Y-105390410D01*
X125484660Y-105553448D01*
X125388318Y-105464115D01*
X124906444Y-105264525D01*
X124650500Y-105383664D01*
X124650500Y-106743500D01*
X124670500Y-106743500D01*
X124670500Y-106997500D01*
X124650500Y-106997500D01*
X124650500Y-108357336D01*
X124906444Y-108476475D01*
X125388318Y-108276885D01*
X125485898Y-108186403D01*
X125583410Y-108337941D01*
X125795610Y-108482931D01*
X126047500Y-108533940D01*
X128079500Y-108533940D01*
X128314817Y-108489662D01*
X128530941Y-108350590D01*
X128675931Y-108138390D01*
X128726940Y-107886500D01*
X128726940Y-107380446D01*
X130537517Y-107380446D01*
X130806312Y-107965879D01*
X131278682Y-108403885D01*
X131760556Y-108603475D01*
X132016500Y-108484336D01*
X132016500Y-107124500D01*
X130656133Y-107124500D01*
X130537517Y-107380446D01*
X128726940Y-107380446D01*
X128726940Y-106614554D01*
X130537517Y-106614554D01*
X130656133Y-106870500D01*
X132016500Y-106870500D01*
X132016500Y-105510664D01*
X131760556Y-105391525D01*
X131278682Y-105591115D01*
X130806312Y-106029121D01*
X130537517Y-106614554D01*
X128726940Y-106614554D01*
X128726940Y-105854500D01*
X128682662Y-105619183D01*
X128543590Y-105403059D01*
X128331390Y-105258069D01*
X128079500Y-105207060D01*
X128079500Y-103326940D01*
X128314817Y-103282662D01*
X128530941Y-103143590D01*
X128675931Y-102931390D01*
X128726940Y-102679500D01*
X128726940Y-102109946D01*
X130537517Y-102109946D01*
X130806312Y-102695379D01*
X131278682Y-103133385D01*
X131760556Y-103332975D01*
X132016500Y-103213836D01*
X132016500Y-101854000D01*
X130656133Y-101854000D01*
X130537517Y-102109946D01*
X128726940Y-102109946D01*
X128726940Y-101344054D01*
X130537517Y-101344054D01*
X130656133Y-101600000D01*
X132016500Y-101600000D01*
X132016500Y-100240164D01*
X131760556Y-100121025D01*
X131278682Y-100320615D01*
X130806312Y-100758621D01*
X130537517Y-101344054D01*
X128726940Y-101344054D01*
X128726940Y-100647500D01*
X128682662Y-100412183D01*
X128543590Y-100196059D01*
X128331390Y-100051069D01*
X128079500Y-100000060D01*
X127871777Y-100000060D01*
X127800197Y-99892933D01*
X127781920Y-99865579D01*
X127777240Y-99860899D01*
X127777240Y-97131595D01*
X127822057Y-97123162D01*
X128038181Y-96984090D01*
X128183171Y-96771890D01*
X128234180Y-96520000D01*
X128234180Y-96297750D01*
X130993000Y-96297750D01*
X130993000Y-97388310D01*
X131089673Y-97621699D01*
X131268302Y-97800327D01*
X131501691Y-97897000D01*
X131842250Y-97897000D01*
X132001000Y-97738250D01*
X132001000Y-96139000D01*
X132255000Y-96139000D01*
X132255000Y-97738250D01*
X132413750Y-97897000D01*
X132754309Y-97897000D01*
X132987698Y-97800327D01*
X133166327Y-97621699D01*
X133263000Y-97388310D01*
X133263000Y-96297750D01*
X133104250Y-96139000D01*
X132255000Y-96139000D01*
X132001000Y-96139000D01*
X131151750Y-96139000D01*
X130993000Y-96297750D01*
X128234180Y-96297750D01*
X128234180Y-94635690D01*
X130993000Y-94635690D01*
X130993000Y-95726250D01*
X131151750Y-95885000D01*
X132001000Y-95885000D01*
X132001000Y-94285750D01*
X132255000Y-94285750D01*
X132255000Y-95885000D01*
X133104250Y-95885000D01*
X133263000Y-95726250D01*
X133263000Y-94635690D01*
X133166327Y-94402301D01*
X132987698Y-94223673D01*
X132754309Y-94127000D01*
X132413750Y-94127000D01*
X132255000Y-94285750D01*
X132001000Y-94285750D01*
X131842250Y-94127000D01*
X131501691Y-94127000D01*
X131268302Y-94223673D01*
X131089673Y-94402301D01*
X130993000Y-94635690D01*
X128234180Y-94635690D01*
X128234180Y-93472000D01*
X128189902Y-93236683D01*
X128050830Y-93020559D01*
X127838630Y-92875569D01*
X127586740Y-92824560D01*
X125935740Y-92824560D01*
X125700423Y-92868838D01*
X125484299Y-93007910D01*
X125339309Y-93220110D01*
X125288300Y-93472000D01*
X125288300Y-96520000D01*
X125332578Y-96755317D01*
X125471650Y-96971441D01*
X125683850Y-97116431D01*
X125745240Y-97128863D01*
X125745240Y-100087415D01*
X125596059Y-100183410D01*
X125484660Y-100346448D01*
X125388318Y-100257115D01*
X124906444Y-100057525D01*
X124650500Y-100176664D01*
X124650500Y-101536500D01*
X124670500Y-101536500D01*
X124670500Y-101790500D01*
X124650500Y-101790500D01*
X124650500Y-101810500D01*
X124396500Y-101810500D01*
X124396500Y-101790500D01*
X123036133Y-101790500D01*
X122917517Y-102046446D01*
X123186312Y-102631879D01*
X123658682Y-103069885D01*
X123789333Y-103124000D01*
X118900274Y-103124000D01*
X117056828Y-101280554D01*
X122917517Y-101280554D01*
X123036133Y-101536500D01*
X124396500Y-101536500D01*
X124396500Y-100176664D01*
X124140556Y-100057525D01*
X123658682Y-100257115D01*
X123186312Y-100695121D01*
X122917517Y-101280554D01*
X117056828Y-101280554D01*
X116840000Y-101063727D01*
X116840000Y-100858003D01*
X117548542Y-100150697D01*
X117950542Y-99182573D01*
X117951457Y-98134306D01*
X117551147Y-97165482D01*
X116810557Y-96423598D01*
X115842433Y-96021598D01*
X114794166Y-96020683D01*
X113825342Y-96420993D01*
X113083458Y-97161583D01*
X112681458Y-98129707D01*
X112680543Y-99177974D01*
X108406000Y-99177974D01*
X108406000Y-97531422D01*
X108921584Y-97531422D01*
X109142353Y-97902143D01*
X110114012Y-98295519D01*
X111162247Y-98287113D01*
X112091647Y-97902143D01*
X112312416Y-97531422D01*
X110617000Y-95836005D01*
X108921584Y-97531422D01*
X108406000Y-97531422D01*
X108406000Y-97151737D01*
X108741978Y-97351816D01*
X110437395Y-95656400D01*
X110796605Y-95656400D01*
X112492022Y-97351816D01*
X112862743Y-97131047D01*
X113256119Y-96159388D01*
X113247713Y-95111153D01*
X113007689Y-94531682D01*
X113620584Y-94531682D01*
X113841353Y-94902403D01*
X114813012Y-95295779D01*
X115861247Y-95287373D01*
X115874822Y-95281750D01*
X120698260Y-95281750D01*
X120698260Y-96646310D01*
X120794933Y-96879699D01*
X120973562Y-97058327D01*
X121206951Y-97155000D01*
X121873010Y-97155000D01*
X122031760Y-96996250D01*
X122031760Y-95123000D01*
X122285760Y-95123000D01*
X122285760Y-96996250D01*
X122444510Y-97155000D01*
X123110569Y-97155000D01*
X123343958Y-97058327D01*
X123522587Y-96879699D01*
X123619260Y-96646310D01*
X123619260Y-95281750D01*
X123460510Y-95123000D01*
X122285760Y-95123000D01*
X122031760Y-95123000D01*
X120857010Y-95123000D01*
X120698260Y-95281750D01*
X115874822Y-95281750D01*
X116790647Y-94902403D01*
X117011416Y-94531682D01*
X115316000Y-92836265D01*
X113620584Y-94531682D01*
X113007689Y-94531682D01*
X112862743Y-94181753D01*
X112492022Y-93960984D01*
X110796605Y-95656400D01*
X110437395Y-95656400D01*
X108741978Y-93960984D01*
X108406000Y-94161063D01*
X108406000Y-93781378D01*
X108921584Y-93781378D01*
X110617000Y-95476795D01*
X112312416Y-93781378D01*
X112091647Y-93410657D01*
X111119988Y-93017281D01*
X110071753Y-93025687D01*
X109142353Y-93410657D01*
X108921584Y-93781378D01*
X108406000Y-93781378D01*
X108406000Y-92153672D01*
X112676881Y-92153672D01*
X112685287Y-93201907D01*
X113070257Y-94131307D01*
X113440978Y-94352076D01*
X115136395Y-92656660D01*
X115495605Y-92656660D01*
X117191022Y-94352076D01*
X117561743Y-94131307D01*
X117879799Y-93345690D01*
X120698260Y-93345690D01*
X120698260Y-94710250D01*
X120857010Y-94869000D01*
X122031760Y-94869000D01*
X122031760Y-92995750D01*
X122285760Y-92995750D01*
X122285760Y-94869000D01*
X123460510Y-94869000D01*
X123619260Y-94710250D01*
X123619260Y-93345690D01*
X123522587Y-93112301D01*
X123343958Y-92933673D01*
X123110569Y-92837000D01*
X122444510Y-92837000D01*
X122285760Y-92995750D01*
X122031760Y-92995750D01*
X121873010Y-92837000D01*
X121206951Y-92837000D01*
X120973562Y-92933673D01*
X120794933Y-93112301D01*
X120698260Y-93345690D01*
X117879799Y-93345690D01*
X117955119Y-93159648D01*
X117946713Y-92111413D01*
X117561743Y-91182013D01*
X117191022Y-90961244D01*
X115495605Y-92656660D01*
X115136395Y-92656660D01*
X113440978Y-90961244D01*
X113070257Y-91182013D01*
X112676881Y-92153672D01*
X108406000Y-92153672D01*
X108406000Y-90781638D01*
X113620584Y-90781638D01*
X115316000Y-92477055D01*
X117011416Y-90781638D01*
X116790647Y-90410917D01*
X115818988Y-90017541D01*
X114770753Y-90025947D01*
X113841353Y-90410917D01*
X113620584Y-90781638D01*
X108406000Y-90781638D01*
X108406000Y-84996020D01*
X120462300Y-84996020D01*
X120462300Y-91696540D01*
X120506578Y-91931857D01*
X120645650Y-92147981D01*
X120857850Y-92292971D01*
X121109740Y-92343980D01*
X127810260Y-92343980D01*
X128045577Y-92299702D01*
X128261701Y-92160630D01*
X128406691Y-91948430D01*
X128455128Y-91709240D01*
X130914685Y-91709240D01*
X130923118Y-91754057D01*
X131062190Y-91970181D01*
X131274390Y-92115171D01*
X131526280Y-92166180D01*
X132034280Y-92166180D01*
X132034280Y-92280740D01*
X132084525Y-92533338D01*
X132111618Y-92669547D01*
X132331860Y-92999160D01*
X133523119Y-94190420D01*
X133852733Y-94410662D01*
X133917240Y-94423493D01*
X134069991Y-94453877D01*
X134031569Y-94510110D01*
X133980560Y-94762000D01*
X133980560Y-97262000D01*
X134024838Y-97497317D01*
X134112000Y-97632771D01*
X134112000Y-100063560D01*
X133667500Y-100063560D01*
X133432183Y-100107838D01*
X133216059Y-100246910D01*
X133104660Y-100409948D01*
X133008318Y-100320615D01*
X132526444Y-100121025D01*
X132270500Y-100240164D01*
X132270500Y-101600000D01*
X132290500Y-101600000D01*
X132290500Y-101854000D01*
X132270500Y-101854000D01*
X132270500Y-103213836D01*
X132526444Y-103332975D01*
X133008318Y-103133385D01*
X133105898Y-103042903D01*
X133203410Y-103194441D01*
X133415610Y-103339431D01*
X133667500Y-103390440D01*
X133667500Y-105334060D01*
X133432183Y-105378338D01*
X133216059Y-105517410D01*
X133104660Y-105680448D01*
X133008318Y-105591115D01*
X132526444Y-105391525D01*
X132270500Y-105510664D01*
X132270500Y-106870500D01*
X132290500Y-106870500D01*
X132290500Y-107124500D01*
X132270500Y-107124500D01*
X132270500Y-108484336D01*
X132526444Y-108603475D01*
X133008318Y-108403885D01*
X133105898Y-108313403D01*
X133203410Y-108464941D01*
X133415610Y-108609931D01*
X133667500Y-108660940D01*
X135699500Y-108660940D01*
X135934817Y-108616662D01*
X136150941Y-108477590D01*
X136295931Y-108265390D01*
X136346940Y-108013500D01*
X136346940Y-107253446D01*
X138157517Y-107253446D01*
X138426312Y-107838879D01*
X138898682Y-108276885D01*
X139380556Y-108476475D01*
X139636500Y-108357336D01*
X139636500Y-106997500D01*
X138276133Y-106997500D01*
X138157517Y-107253446D01*
X136346940Y-107253446D01*
X136346940Y-106487554D01*
X138157517Y-106487554D01*
X138276133Y-106743500D01*
X139636500Y-106743500D01*
X139636500Y-105383664D01*
X139380556Y-105264525D01*
X138898682Y-105464115D01*
X138426312Y-105902121D01*
X138157517Y-106487554D01*
X136346940Y-106487554D01*
X136346940Y-105981500D01*
X136302662Y-105746183D01*
X136163590Y-105530059D01*
X135951390Y-105385069D01*
X135699500Y-105334060D01*
X135699500Y-103390440D01*
X135934817Y-103346162D01*
X136150941Y-103207090D01*
X136295931Y-102994890D01*
X136346940Y-102743000D01*
X136346940Y-102046446D01*
X138157517Y-102046446D01*
X138426312Y-102631879D01*
X138898682Y-103069885D01*
X139380556Y-103269475D01*
X139636500Y-103150336D01*
X139636500Y-101790500D01*
X138276133Y-101790500D01*
X138157517Y-102046446D01*
X136346940Y-102046446D01*
X136346940Y-101280554D01*
X138157517Y-101280554D01*
X138276133Y-101536500D01*
X139636500Y-101536500D01*
X139636500Y-100176664D01*
X139380556Y-100057525D01*
X138898682Y-100257115D01*
X138426312Y-100695121D01*
X138157517Y-101280554D01*
X136346940Y-101280554D01*
X136346940Y-100711000D01*
X136302662Y-100475683D01*
X136163590Y-100259559D01*
X136144000Y-100246174D01*
X136144000Y-97631605D01*
X136224431Y-97513890D01*
X136275440Y-97262000D01*
X136275440Y-96297750D01*
X138565000Y-96297750D01*
X138565000Y-97388310D01*
X138661673Y-97621699D01*
X138840302Y-97800327D01*
X139073691Y-97897000D01*
X139414250Y-97897000D01*
X139573000Y-97738250D01*
X139573000Y-96139000D01*
X139827000Y-96139000D01*
X139827000Y-97738250D01*
X139985750Y-97897000D01*
X140326309Y-97897000D01*
X140559698Y-97800327D01*
X140738327Y-97621699D01*
X140835000Y-97388310D01*
X140835000Y-96297750D01*
X140676250Y-96139000D01*
X139827000Y-96139000D01*
X139573000Y-96139000D01*
X138723750Y-96139000D01*
X138565000Y-96297750D01*
X136275440Y-96297750D01*
X136275440Y-94762000D01*
X136251674Y-94635690D01*
X138565000Y-94635690D01*
X138565000Y-95726250D01*
X138723750Y-95885000D01*
X139573000Y-95885000D01*
X139573000Y-94285750D01*
X139827000Y-94285750D01*
X139827000Y-95885000D01*
X140676250Y-95885000D01*
X140835000Y-95726250D01*
X140835000Y-94635690D01*
X140738327Y-94402301D01*
X140559698Y-94223673D01*
X140326309Y-94127000D01*
X139985750Y-94127000D01*
X139827000Y-94285750D01*
X139573000Y-94285750D01*
X139414250Y-94127000D01*
X139073691Y-94127000D01*
X138840302Y-94223673D01*
X138661673Y-94402301D01*
X138565000Y-94635690D01*
X136251674Y-94635690D01*
X136231162Y-94526683D01*
X136144000Y-94391229D01*
X136144000Y-94000000D01*
X136066662Y-93611194D01*
X136066662Y-93611193D01*
X135846421Y-93281580D01*
X135318420Y-92753580D01*
X134988807Y-92533338D01*
X134924300Y-92520507D01*
X134677870Y-92471489D01*
X134372561Y-92166180D01*
X134574280Y-92166180D01*
X134809597Y-92121902D01*
X135025721Y-91982830D01*
X135170711Y-91770630D01*
X135221720Y-91518740D01*
X135221720Y-89867740D01*
X135177442Y-89632423D01*
X135038370Y-89416299D01*
X134826170Y-89271309D01*
X134574280Y-89220300D01*
X131526280Y-89220300D01*
X131290963Y-89264578D01*
X131074839Y-89403650D01*
X130929849Y-89615850D01*
X130917417Y-89677240D01*
X128457700Y-89677240D01*
X128457700Y-86376510D01*
X130891280Y-86376510D01*
X130891280Y-87042569D01*
X130987953Y-87275958D01*
X131166581Y-87454587D01*
X131399970Y-87551260D01*
X132764530Y-87551260D01*
X132923280Y-87392510D01*
X132923280Y-86217760D01*
X133177280Y-86217760D01*
X133177280Y-87392510D01*
X133336030Y-87551260D01*
X134700590Y-87551260D01*
X134933979Y-87454587D01*
X135112607Y-87275958D01*
X135209280Y-87042569D01*
X135209280Y-86376510D01*
X135050530Y-86217760D01*
X133177280Y-86217760D01*
X132923280Y-86217760D01*
X131050030Y-86217760D01*
X130891280Y-86376510D01*
X128457700Y-86376510D01*
X128457700Y-85138951D01*
X130891280Y-85138951D01*
X130891280Y-85805010D01*
X131050030Y-85963760D01*
X132923280Y-85963760D01*
X132923280Y-84789010D01*
X133177280Y-84789010D01*
X133177280Y-85963760D01*
X135050530Y-85963760D01*
X135209280Y-85805010D01*
X135209280Y-85138951D01*
X135169014Y-85041740D01*
X135702300Y-85041740D01*
X135702300Y-91742260D01*
X135746578Y-91977577D01*
X135885650Y-92193701D01*
X136097850Y-92338691D01*
X136349740Y-92389700D01*
X141684000Y-92389700D01*
X141684000Y-94392395D01*
X141603569Y-94510110D01*
X141552560Y-94762000D01*
X141552560Y-97262000D01*
X141596838Y-97497317D01*
X141684000Y-97632771D01*
X141684000Y-100000060D01*
X141287500Y-100000060D01*
X141052183Y-100044338D01*
X140836059Y-100183410D01*
X140724660Y-100346448D01*
X140628318Y-100257115D01*
X140146444Y-100057525D01*
X139890500Y-100176664D01*
X139890500Y-101536500D01*
X139910500Y-101536500D01*
X139910500Y-101790500D01*
X139890500Y-101790500D01*
X139890500Y-103150336D01*
X140146444Y-103269475D01*
X140628318Y-103069885D01*
X140725898Y-102979403D01*
X140823410Y-103130941D01*
X141035610Y-103275931D01*
X141287500Y-103326940D01*
X141287500Y-105207060D01*
X141052183Y-105251338D01*
X140836059Y-105390410D01*
X140724660Y-105553448D01*
X140628318Y-105464115D01*
X140146444Y-105264525D01*
X139890500Y-105383664D01*
X139890500Y-106743500D01*
X139910500Y-106743500D01*
X139910500Y-106997500D01*
X139890500Y-106997500D01*
X139890500Y-108357336D01*
X140146444Y-108476475D01*
X140628318Y-108276885D01*
X140725898Y-108186403D01*
X140823410Y-108337941D01*
X141035610Y-108482931D01*
X141287500Y-108533940D01*
X143319500Y-108533940D01*
X143554817Y-108489662D01*
X143770941Y-108350590D01*
X143915931Y-108138390D01*
X143966940Y-107886500D01*
X143966940Y-105854500D01*
X143922662Y-105619183D01*
X143783590Y-105403059D01*
X143571390Y-105258069D01*
X143319500Y-105207060D01*
X143319500Y-103326940D01*
X143554817Y-103282662D01*
X143770941Y-103143590D01*
X143915931Y-102931390D01*
X143966940Y-102679500D01*
X143966940Y-100647500D01*
X143922662Y-100412183D01*
X143783590Y-100196059D01*
X143716000Y-100149877D01*
X143716000Y-97631605D01*
X143796431Y-97513890D01*
X143847440Y-97262000D01*
X143847440Y-94762000D01*
X143803162Y-94526683D01*
X143716000Y-94391229D01*
X143716000Y-91392000D01*
X143697700Y-91299999D01*
X143697700Y-85041740D01*
X143653422Y-84806423D01*
X143514350Y-84590299D01*
X143302150Y-84445309D01*
X143050260Y-84394300D01*
X136349740Y-84394300D01*
X136114423Y-84438578D01*
X135898299Y-84577650D01*
X135753309Y-84789850D01*
X135702300Y-85041740D01*
X135169014Y-85041740D01*
X135112607Y-84905562D01*
X134933979Y-84726933D01*
X134700590Y-84630260D01*
X133336030Y-84630260D01*
X133177280Y-84789010D01*
X132923280Y-84789010D01*
X132764530Y-84630260D01*
X131399970Y-84630260D01*
X131166581Y-84726933D01*
X130987953Y-84905562D01*
X130891280Y-85138951D01*
X128457700Y-85138951D01*
X128457700Y-84996020D01*
X128413422Y-84760703D01*
X128274350Y-84544579D01*
X128062150Y-84399589D01*
X127810260Y-84348580D01*
X121109740Y-84348580D01*
X120874423Y-84392858D01*
X120658299Y-84531930D01*
X120513309Y-84744130D01*
X120462300Y-84996020D01*
X108406000Y-84996020D01*
X108406000Y-84022000D01*
X145594000Y-84022000D01*
X145594000Y-111558000D01*
M02*
