G04 #@! TF.FileFunction,Other,Fab,Top*
%FSLAX46Y46*%
G04 Gerber Fmt 4.6, Leading zero omitted, Abs format (unit mm)*
G04 Created by KiCad (PCBNEW 4.0.1-3.201512221402+6198~38~ubuntu14.04.1-stable) date Tue 23 Aug 2016 07:26:35 PM PDT*
%MOMM*%
G01*
G04 APERTURE LIST*
%ADD10C,0.100000*%
%ADD11C,0.300000*%
%ADD12C,0.200000*%
%ADD13C,0.050000*%
%ADD14C,0.400000*%
%ADD15C,0.150000*%
%ADD16C,0.177800*%
G04 APERTURE END LIST*
D10*
D11*
X145541427Y-114121429D02*
X145684285Y-114050000D01*
X145755713Y-113978571D01*
X145827142Y-113835714D01*
X145827142Y-113764286D01*
X145755713Y-113621429D01*
X145684285Y-113550000D01*
X145541427Y-113478571D01*
X145255713Y-113478571D01*
X145112856Y-113550000D01*
X145041427Y-113621429D01*
X144969999Y-113764286D01*
X144969999Y-113835714D01*
X145041427Y-113978571D01*
X145112856Y-114050000D01*
X145255713Y-114121429D01*
X145541427Y-114121429D01*
X145684285Y-114192857D01*
X145755713Y-114264286D01*
X145827142Y-114407143D01*
X145827142Y-114692857D01*
X145755713Y-114835714D01*
X145684285Y-114907143D01*
X145541427Y-114978571D01*
X145255713Y-114978571D01*
X145112856Y-114907143D01*
X145041427Y-114835714D01*
X144969999Y-114692857D01*
X144969999Y-114407143D01*
X145041427Y-114264286D01*
X145112856Y-114192857D01*
X145255713Y-114121429D01*
X143255714Y-113407143D02*
X144541428Y-115335714D01*
X142827142Y-113621429D02*
X142755713Y-113550000D01*
X142612856Y-113478571D01*
X142255713Y-113478571D01*
X142112856Y-113550000D01*
X142041427Y-113621429D01*
X141969999Y-113764286D01*
X141969999Y-113907143D01*
X142041427Y-114121429D01*
X142898570Y-114978571D01*
X141969999Y-114978571D01*
X141469999Y-113478571D02*
X140541428Y-113478571D01*
X141041428Y-114050000D01*
X140827142Y-114050000D01*
X140684285Y-114121429D01*
X140612856Y-114192857D01*
X140541428Y-114335714D01*
X140541428Y-114692857D01*
X140612856Y-114835714D01*
X140684285Y-114907143D01*
X140827142Y-114978571D01*
X141255714Y-114978571D01*
X141398571Y-114907143D01*
X141469999Y-114835714D01*
X138827143Y-113407143D02*
X140112857Y-115335714D01*
X137541428Y-114978571D02*
X138398571Y-114978571D01*
X137969999Y-114978571D02*
X137969999Y-113478571D01*
X138112856Y-113692857D01*
X138255714Y-113835714D01*
X138398571Y-113907143D01*
X136255714Y-113478571D02*
X136541428Y-113478571D01*
X136684285Y-113550000D01*
X136755714Y-113621429D01*
X136898571Y-113835714D01*
X136970000Y-114121429D01*
X136970000Y-114692857D01*
X136898571Y-114835714D01*
X136827143Y-114907143D01*
X136684285Y-114978571D01*
X136398571Y-114978571D01*
X136255714Y-114907143D01*
X136184285Y-114835714D01*
X136112857Y-114692857D01*
X136112857Y-114335714D01*
X136184285Y-114192857D01*
X136255714Y-114121429D01*
X136398571Y-114050000D01*
X136684285Y-114050000D01*
X136827143Y-114121429D01*
X136898571Y-114192857D01*
X136970000Y-114335714D01*
X113718572Y-81704571D02*
X113718572Y-80204571D01*
X114432858Y-80704571D02*
X114432858Y-81704571D01*
X114432858Y-80847429D02*
X114504286Y-80776000D01*
X114647144Y-80704571D01*
X114861429Y-80704571D01*
X115004286Y-80776000D01*
X115075715Y-80918857D01*
X115075715Y-81704571D01*
X115790001Y-80704571D02*
X115790001Y-82204571D01*
X115790001Y-80776000D02*
X115932858Y-80704571D01*
X116218572Y-80704571D01*
X116361429Y-80776000D01*
X116432858Y-80847429D01*
X116504287Y-80990286D01*
X116504287Y-81418857D01*
X116432858Y-81561714D01*
X116361429Y-81633143D01*
X116218572Y-81704571D01*
X115932858Y-81704571D01*
X115790001Y-81633143D01*
X117790001Y-80704571D02*
X117790001Y-81704571D01*
X117147144Y-80704571D02*
X117147144Y-81490286D01*
X117218572Y-81633143D01*
X117361430Y-81704571D01*
X117575715Y-81704571D01*
X117718572Y-81633143D01*
X117790001Y-81561714D01*
X118290001Y-80704571D02*
X118861430Y-80704571D01*
X118504287Y-80204571D02*
X118504287Y-81490286D01*
X118575715Y-81633143D01*
X118718573Y-81704571D01*
X118861430Y-81704571D01*
X120504287Y-81704571D02*
X120504287Y-80204571D01*
X121075715Y-80204571D01*
X121218573Y-80276000D01*
X121290001Y-80347429D01*
X121361430Y-80490286D01*
X121361430Y-80704571D01*
X121290001Y-80847429D01*
X121218573Y-80918857D01*
X121075715Y-80990286D01*
X120504287Y-80990286D01*
X122218573Y-81704571D02*
X122075715Y-81633143D01*
X122004287Y-81561714D01*
X121932858Y-81418857D01*
X121932858Y-80990286D01*
X122004287Y-80847429D01*
X122075715Y-80776000D01*
X122218573Y-80704571D01*
X122432858Y-80704571D01*
X122575715Y-80776000D01*
X122647144Y-80847429D01*
X122718573Y-80990286D01*
X122718573Y-81418857D01*
X122647144Y-81561714D01*
X122575715Y-81633143D01*
X122432858Y-81704571D01*
X122218573Y-81704571D01*
X123218573Y-80704571D02*
X123504287Y-81704571D01*
X123790001Y-80990286D01*
X124075716Y-81704571D01*
X124361430Y-80704571D01*
X125504287Y-81633143D02*
X125361430Y-81704571D01*
X125075716Y-81704571D01*
X124932859Y-81633143D01*
X124861430Y-81490286D01*
X124861430Y-80918857D01*
X124932859Y-80776000D01*
X125075716Y-80704571D01*
X125361430Y-80704571D01*
X125504287Y-80776000D01*
X125575716Y-80918857D01*
X125575716Y-81061714D01*
X124861430Y-81204571D01*
X126218573Y-81704571D02*
X126218573Y-80704571D01*
X126218573Y-80990286D02*
X126290001Y-80847429D01*
X126361430Y-80776000D01*
X126504287Y-80704571D01*
X126647144Y-80704571D01*
X128790001Y-80918857D02*
X129004287Y-80990286D01*
X129075715Y-81061714D01*
X129147144Y-81204571D01*
X129147144Y-81418857D01*
X129075715Y-81561714D01*
X129004287Y-81633143D01*
X128861429Y-81704571D01*
X128290001Y-81704571D01*
X128290001Y-80204571D01*
X128790001Y-80204571D01*
X128932858Y-80276000D01*
X129004287Y-80347429D01*
X129075715Y-80490286D01*
X129075715Y-80633143D01*
X129004287Y-80776000D01*
X128932858Y-80847429D01*
X128790001Y-80918857D01*
X128290001Y-80918857D01*
X130004287Y-81704571D02*
X129861429Y-81633143D01*
X129790001Y-81561714D01*
X129718572Y-81418857D01*
X129718572Y-80990286D01*
X129790001Y-80847429D01*
X129861429Y-80776000D01*
X130004287Y-80704571D01*
X130218572Y-80704571D01*
X130361429Y-80776000D01*
X130432858Y-80847429D01*
X130504287Y-80990286D01*
X130504287Y-81418857D01*
X130432858Y-81561714D01*
X130361429Y-81633143D01*
X130218572Y-81704571D01*
X130004287Y-81704571D01*
X131790001Y-81704571D02*
X131790001Y-80918857D01*
X131718572Y-80776000D01*
X131575715Y-80704571D01*
X131290001Y-80704571D01*
X131147144Y-80776000D01*
X131790001Y-81633143D02*
X131647144Y-81704571D01*
X131290001Y-81704571D01*
X131147144Y-81633143D01*
X131075715Y-81490286D01*
X131075715Y-81347429D01*
X131147144Y-81204571D01*
X131290001Y-81133143D01*
X131647144Y-81133143D01*
X131790001Y-81061714D01*
X132504287Y-81704571D02*
X132504287Y-80704571D01*
X132504287Y-80990286D02*
X132575715Y-80847429D01*
X132647144Y-80776000D01*
X132790001Y-80704571D01*
X132932858Y-80704571D01*
X134075715Y-81704571D02*
X134075715Y-80204571D01*
X134075715Y-81633143D02*
X133932858Y-81704571D01*
X133647144Y-81704571D01*
X133504286Y-81633143D01*
X133432858Y-81561714D01*
X133361429Y-81418857D01*
X133361429Y-80990286D01*
X133432858Y-80847429D01*
X133504286Y-80776000D01*
X133647144Y-80704571D01*
X133932858Y-80704571D01*
X134075715Y-80776000D01*
X135861429Y-81633143D02*
X136075715Y-81704571D01*
X136432858Y-81704571D01*
X136575715Y-81633143D01*
X136647144Y-81561714D01*
X136718572Y-81418857D01*
X136718572Y-81276000D01*
X136647144Y-81133143D01*
X136575715Y-81061714D01*
X136432858Y-80990286D01*
X136147144Y-80918857D01*
X136004286Y-80847429D01*
X135932858Y-80776000D01*
X135861429Y-80633143D01*
X135861429Y-80490286D01*
X135932858Y-80347429D01*
X136004286Y-80276000D01*
X136147144Y-80204571D01*
X136504286Y-80204571D01*
X136718572Y-80276000D01*
X137361429Y-81704571D02*
X137361429Y-80204571D01*
X137861429Y-81276000D01*
X138361429Y-80204571D01*
X138361429Y-81704571D01*
X138861429Y-80204571D02*
X139718572Y-80204571D01*
X139290001Y-81704571D02*
X139290001Y-80204571D01*
X141218572Y-80704571D02*
X141575715Y-81704571D01*
X141932857Y-80704571D01*
X143290000Y-81704571D02*
X142432857Y-81704571D01*
X142861429Y-81704571D02*
X142861429Y-80204571D01*
X142718572Y-80418857D01*
X142575714Y-80561714D01*
X142432857Y-80633143D01*
X143932857Y-81561714D02*
X144004285Y-81633143D01*
X143932857Y-81704571D01*
X143861428Y-81633143D01*
X143932857Y-81561714D01*
X143932857Y-81704571D01*
X145432857Y-81704571D02*
X144575714Y-81704571D01*
X145004286Y-81704571D02*
X145004286Y-80204571D01*
X144861429Y-80418857D01*
X144718571Y-80561714D01*
X144575714Y-80633143D01*
D12*
X107696000Y-83312000D02*
X146304000Y-83312000D01*
X107696000Y-112268000D02*
X107696000Y-83312000D01*
X146304000Y-112268000D02*
X107696000Y-112268000D01*
X146304000Y-83312000D02*
X146304000Y-112268000D01*
D13*
X112518562Y-95456000D02*
G75*
G03X112518562Y-95456000I-1952562J0D01*
G01*
X117268562Y-92456000D02*
G75*
G03X117268562Y-92456000I-1952562J0D01*
G01*
X117219943Y-98706000D02*
G75*
G03X117219943Y-98706000I-1903943J0D01*
G01*
D14*
X115669553Y-98706000D02*
G75*
G03X115669553Y-98706000I-353553J0D01*
G01*
D13*
X119816000Y-100956000D02*
X119816000Y-99456000D01*
X108316000Y-100956000D02*
X119816000Y-100956000D01*
X108316000Y-84956000D02*
X108316000Y-100956000D01*
X110816000Y-84956000D02*
X108316000Y-84956000D01*
X119816000Y-84956000D02*
X110816000Y-84956000D01*
X119816000Y-99456000D02*
X119816000Y-84956000D01*
X135928000Y-97612000D02*
X135928000Y-94412000D01*
X135928000Y-97612000D02*
X131328000Y-97612000D01*
X131328000Y-97612000D02*
X131328000Y-94412000D01*
X135928000Y-94412000D02*
X131328000Y-94412000D01*
X136433500Y-98427000D02*
X136425940Y-105027000D01*
X136433500Y-98427000D02*
X130383500Y-98427000D01*
X136433500Y-105027000D02*
X130383500Y-105027000D01*
X130383500Y-98427000D02*
X130383500Y-105027000D01*
X130433500Y-108747500D02*
X136433500Y-108747500D01*
X130433500Y-108747500D02*
X130433500Y-105247500D01*
X136433500Y-105247500D02*
X130433500Y-105247500D01*
X136433500Y-108747500D02*
X136433500Y-105247500D01*
D14*
X134975048Y-106997500D02*
G75*
G03X134975048Y-106997500I-291548J0D01*
G01*
D13*
X144053500Y-98363500D02*
X144045940Y-104963500D01*
X144053500Y-98363500D02*
X138003500Y-98363500D01*
X144053500Y-104963500D02*
X138003500Y-104963500D01*
X138003500Y-98363500D02*
X138003500Y-104963500D01*
X128813500Y-98363500D02*
X128805940Y-104963500D01*
X128813500Y-98363500D02*
X122763500Y-98363500D01*
X128813500Y-104963500D02*
X122763500Y-104963500D01*
X122763500Y-98363500D02*
X122763500Y-104963500D01*
X138053500Y-108620500D02*
X144053500Y-108620500D01*
X138053500Y-108620500D02*
X138053500Y-105120500D01*
X144053500Y-105120500D02*
X138053500Y-105120500D01*
X144053500Y-108620500D02*
X144053500Y-105120500D01*
D14*
X142595048Y-106870500D02*
G75*
G03X142595048Y-106870500I-291548J0D01*
G01*
D13*
X122813500Y-108620500D02*
X128813500Y-108620500D01*
X122813500Y-108620500D02*
X122813500Y-105120500D01*
X128813500Y-105120500D02*
X122813500Y-105120500D01*
X128813500Y-108620500D02*
X128813500Y-105120500D01*
D14*
X127355048Y-106870500D02*
G75*
G03X127355048Y-106870500I-291548J0D01*
G01*
D13*
X120396000Y-84328000D02*
X128524000Y-84328000D01*
X120396000Y-97028000D02*
X120396000Y-84328000D01*
X120650000Y-97028000D02*
X120396000Y-97028000D01*
X128524000Y-97028000D02*
X120650000Y-97028000D01*
X128524000Y-84328000D02*
X128524000Y-97028000D01*
X143718280Y-84328000D02*
X143718280Y-92456000D01*
X131018280Y-84328000D02*
X143718280Y-84328000D01*
X131018280Y-84582000D02*
X131018280Y-84328000D01*
X131018280Y-92456000D02*
X131018280Y-84582000D01*
X143718280Y-92456000D02*
X131018280Y-92456000D01*
X143500000Y-97612000D02*
X143500000Y-94412000D01*
X143500000Y-97612000D02*
X138900000Y-97612000D01*
X138900000Y-97612000D02*
X138900000Y-94412000D01*
X143500000Y-94412000D02*
X138900000Y-94412000D01*
D15*
X114768381Y-92789333D02*
X115482667Y-92789333D01*
X115625524Y-92836953D01*
X115720762Y-92932191D01*
X115768381Y-93075048D01*
X115768381Y-93170286D01*
X114768381Y-91836952D02*
X114768381Y-92313143D01*
X115244571Y-92360762D01*
X115196952Y-92313143D01*
X115149333Y-92217905D01*
X115149333Y-91979809D01*
X115196952Y-91884571D01*
X115244571Y-91836952D01*
X115339810Y-91789333D01*
X115577905Y-91789333D01*
X115673143Y-91836952D01*
X115720762Y-91884571D01*
X115768381Y-91979809D01*
X115768381Y-92217905D01*
X115720762Y-92313143D01*
X115673143Y-92360762D01*
X133461334Y-96369143D02*
X133413715Y-96416762D01*
X133270858Y-96464381D01*
X133175620Y-96464381D01*
X133032762Y-96416762D01*
X132937524Y-96321524D01*
X132889905Y-96226286D01*
X132842286Y-96035810D01*
X132842286Y-95892952D01*
X132889905Y-95702476D01*
X132937524Y-95607238D01*
X133032762Y-95512000D01*
X133175620Y-95464381D01*
X133270858Y-95464381D01*
X133413715Y-95512000D01*
X133461334Y-95559619D01*
X134413715Y-96464381D02*
X133842286Y-96464381D01*
X134128000Y-96464381D02*
X134128000Y-95464381D01*
X134032762Y-95607238D01*
X133937524Y-95702476D01*
X133842286Y-95750095D01*
X132865881Y-102965095D02*
X133580167Y-102965095D01*
X133723024Y-103012715D01*
X133818262Y-103107953D01*
X133865881Y-103250810D01*
X133865881Y-103346048D01*
X132865881Y-102584143D02*
X132865881Y-101965095D01*
X133246833Y-102298429D01*
X133246833Y-102155571D01*
X133294452Y-102060333D01*
X133342071Y-102012714D01*
X133437310Y-101965095D01*
X133675405Y-101965095D01*
X133770643Y-102012714D01*
X133818262Y-102060333D01*
X133865881Y-102155571D01*
X133865881Y-102441286D01*
X133818262Y-102536524D01*
X133770643Y-102584143D01*
X133580167Y-101584143D02*
X133580167Y-101107952D01*
X133865881Y-101679381D02*
X132865881Y-101346048D01*
X133865881Y-101012714D01*
X133865881Y-100155571D02*
X133865881Y-100727000D01*
X133865881Y-100441286D02*
X132865881Y-100441286D01*
X133008738Y-100536524D01*
X133103976Y-100631762D01*
X133151595Y-100727000D01*
X133100167Y-106449881D02*
X133100167Y-107164167D01*
X133052547Y-107307024D01*
X132957309Y-107402262D01*
X132814452Y-107449881D01*
X132719214Y-107449881D01*
X133481119Y-106449881D02*
X134100167Y-106449881D01*
X133766833Y-106830833D01*
X133909691Y-106830833D01*
X134004929Y-106878452D01*
X134052548Y-106926071D01*
X134100167Y-107021310D01*
X134100167Y-107259405D01*
X134052548Y-107354643D01*
X134004929Y-107402262D01*
X133909691Y-107449881D01*
X133623976Y-107449881D01*
X133528738Y-107402262D01*
X133481119Y-107354643D01*
X140485881Y-102901595D02*
X141200167Y-102901595D01*
X141343024Y-102949215D01*
X141438262Y-103044453D01*
X141485881Y-103187310D01*
X141485881Y-103282548D01*
X140819214Y-101996833D02*
X141485881Y-101996833D01*
X140438262Y-102234929D02*
X141152548Y-102473024D01*
X141152548Y-101853976D01*
X141200167Y-101520643D02*
X141200167Y-101044452D01*
X141485881Y-101615881D02*
X140485881Y-101282548D01*
X141485881Y-100949214D01*
X141485881Y-100092071D02*
X141485881Y-100663500D01*
X141485881Y-100377786D02*
X140485881Y-100377786D01*
X140628738Y-100473024D01*
X140723976Y-100568262D01*
X140771595Y-100663500D01*
X125245881Y-102901595D02*
X125960167Y-102901595D01*
X126103024Y-102949215D01*
X126198262Y-103044453D01*
X126245881Y-103187310D01*
X126245881Y-103282548D01*
X125341119Y-102473024D02*
X125293500Y-102425405D01*
X125245881Y-102330167D01*
X125245881Y-102092071D01*
X125293500Y-101996833D01*
X125341119Y-101949214D01*
X125436357Y-101901595D01*
X125531595Y-101901595D01*
X125674452Y-101949214D01*
X126245881Y-102520643D01*
X126245881Y-101901595D01*
X125960167Y-101520643D02*
X125960167Y-101044452D01*
X126245881Y-101615881D02*
X125245881Y-101282548D01*
X126245881Y-100949214D01*
X126245881Y-100092071D02*
X126245881Y-100663500D01*
X126245881Y-100377786D02*
X125245881Y-100377786D01*
X125388738Y-100473024D01*
X125483976Y-100568262D01*
X125531595Y-100663500D01*
X140720167Y-106322881D02*
X140720167Y-107037167D01*
X140672547Y-107180024D01*
X140577309Y-107275262D01*
X140434452Y-107322881D01*
X140339214Y-107322881D01*
X141624929Y-106656214D02*
X141624929Y-107322881D01*
X141386833Y-106275262D02*
X141148738Y-106989548D01*
X141767786Y-106989548D01*
X125480167Y-106322881D02*
X125480167Y-107037167D01*
X125432547Y-107180024D01*
X125337309Y-107275262D01*
X125194452Y-107322881D01*
X125099214Y-107322881D01*
X125908738Y-106418119D02*
X125956357Y-106370500D01*
X126051595Y-106322881D01*
X126289691Y-106322881D01*
X126384929Y-106370500D01*
X126432548Y-106418119D01*
X126480167Y-106513357D01*
X126480167Y-106608595D01*
X126432548Y-106751452D01*
X125861119Y-107322881D01*
X126480167Y-107322881D01*
D16*
X123736705Y-87581619D02*
X123736705Y-88404095D01*
X123785086Y-88500857D01*
X123833467Y-88549238D01*
X123930229Y-88597619D01*
X124123752Y-88597619D01*
X124220514Y-88549238D01*
X124268895Y-88500857D01*
X124317276Y-88404095D01*
X124317276Y-87581619D01*
X125333276Y-88597619D02*
X124752705Y-88597619D01*
X125042991Y-88597619D02*
X125042991Y-87581619D01*
X124946229Y-87726762D01*
X124849467Y-87823524D01*
X124752705Y-87871905D01*
X139351899Y-89216895D02*
X140174375Y-89216895D01*
X140271137Y-89168514D01*
X140319518Y-89120133D01*
X140367899Y-89023371D01*
X140367899Y-88829848D01*
X140319518Y-88733086D01*
X140271137Y-88684705D01*
X140174375Y-88636324D01*
X139351899Y-88636324D01*
X139448661Y-88200895D02*
X139400280Y-88152514D01*
X139351899Y-88055752D01*
X139351899Y-87813848D01*
X139400280Y-87717086D01*
X139448661Y-87668705D01*
X139545423Y-87620324D01*
X139642185Y-87620324D01*
X139787328Y-87668705D01*
X140367899Y-88249276D01*
X140367899Y-87620324D01*
D15*
X141033334Y-96369143D02*
X140985715Y-96416762D01*
X140842858Y-96464381D01*
X140747620Y-96464381D01*
X140604762Y-96416762D01*
X140509524Y-96321524D01*
X140461905Y-96226286D01*
X140414286Y-96035810D01*
X140414286Y-95892952D01*
X140461905Y-95702476D01*
X140509524Y-95607238D01*
X140604762Y-95512000D01*
X140747620Y-95464381D01*
X140842858Y-95464381D01*
X140985715Y-95512000D01*
X141033334Y-95559619D01*
X141414286Y-95559619D02*
X141461905Y-95512000D01*
X141557143Y-95464381D01*
X141795239Y-95464381D01*
X141890477Y-95512000D01*
X141938096Y-95559619D01*
X141985715Y-95654857D01*
X141985715Y-95750095D01*
X141938096Y-95892952D01*
X141366667Y-96464381D01*
X141985715Y-96464381D01*
M02*
